<svg id="Layer_1" data-name="Layer 1" xmlns="http://www.w3.org/2000/svg" viewBox="0 0 374.12 414.9"><defs><style>.cls-1{fill:#f14910;}.cls-2{fill:#fff;}.cls-3{fill:#110239;}.cls-4{fill:#fd425f;}</style></defs><title>cel</title><rect x="94.89" y="52.9" width="178.71" height="296.75" rx="7.42" ry="7.42"/><rect class="cls-1" x="108.58" y="65.18" width="153.18" height="259.99"/><circle class="cls-2" cx="184.25" cy="336.55" r="4.82"/><rect class="cls-2" x="114.48" y="73.24" width="7.51" height="6.07" rx="1.77" ry="1.77"/><rect class="cls-2" x="134.98" y="73.24" width="7.51" height="6.07" rx="1.77" ry="1.77"/><rect class="cls-2" x="233.96" y="73.24" width="7.51" height="6.07" rx="1.77" ry="1.77"/><rect class="cls-2" x="210.99" y="73.24" width="7.51" height="6.07" rx="1.77" ry="1.77"/><rect class="cls-2" x="248.35" y="73.24" width="7.51" height="6.07" rx="1.77" ry="1.77"/><path class="cls-3" d="M183.94,203.38a21.44,21.44,0,0,1-.78-2.08c-2.26-7.34-.38-14.44,4.2-15.85s10.13,3.4,12.39,10.74a21.52,21.52,0,0,1,.53,2.15l1.48-.46c-.15-.71-.33-1.43-.55-2.15-2.66-8.63-9.19-14.29-14.58-12.63s-7.6,10-4.94,18.64c.22.72.48,1.41.75,2.09Z" transform="translate(-30.71 -15)"/><polygon class="cls-2" points="197.23 222.86 152.59 236.61 142.22 189.54 179.31 178.11 197.23 222.86"/><path class="cls-3" d="M231.13,185a21.38,21.38,0,0,1,.38-2.19c1.77-7.48,7-12.64,11.65-11.54s7,8.06,5.25,15.54a21.37,21.37,0,0,1-.64,2.13l1.51.36c.23-.69.44-1.4.61-2.13,2.08-8.79-.68-17-6.17-18.27s-11.62,4.78-13.7,13.57c-.17.73-.3,1.46-.41,2.18Z" transform="translate(-30.71 -15)"/><polygon class="cls-4" points="220.9 222.04 175.44 211.28 190.35 165.45 228.12 174.38 220.9 222.04"/><circle class="cls-2" cx="185.17" cy="117.77" r="24.64"/><path d="M214.65,133c-.4,0-3.87-10-5-9.59-1.65.55-6.15,2.73-6.26,4.6s9.09,18,10.63,18c3.24,0,16.82-17.93,15.72-20s-6.23-4.83-7-4.06C222.12,122.59,215,133,214.65,133Z" transform="translate(-30.71 -15)"/><rect class="cls-4" x="155.33" y="290.67" width="61" height="19.36" rx="6.94" ry="6.94"/><path class="cls-2" d="M210.44,313a2.09,2.09,0,0,1-1.63,2,2.33,2.33,0,0,1,1.94,2.38c0,1.62-1.41,2.62-3.63,2.62h-4.65v-9.43h4.48C209.08,310.58,210.44,311.51,210.44,313Zm-2.53.43c0-.56-.42-.9-1.1-.89h-1.88v1.83h1.88C207.49,314.34,207.91,314,207.91,313.39Zm.3,3.69c0-.59-.54-1-1.4-1h-1.88v2h1.88C207.66,318.1,208.2,317.73,208.2,317.08Z" transform="translate(-30.71 -15)"/><path class="cls-2" d="M216.31,318a1.79,1.79,0,0,0,1.84-2v-5.48h2.46v5.48c0,2.49-1.67,4.06-4.32,4.06s-4.37-1.57-4.37-4.06v-5.48h2.46v5.48A1.84,1.84,0,0,0,216.31,318Z" transform="translate(-30.71 -15)"/><path class="cls-2" d="M227.22,317v3h-2.46v-2.95l-3.47-6.48h2.46l2.23,4,2.18-4h2.46Z" transform="translate(-30.71 -15)"/><path d="M86,187.32a1.56,1.56,0,1,0-2.07,2.34q5.71,5,11.94,10.19a1.56,1.56,0,0,0,2-2.41Q91.67,192.34,86,187.32Z" transform="translate(-30.71 -15)"/><path d="M119,116.43a1.56,1.56,0,0,0,.53-3c-5.14-1.86-10.15-3.56-14.88-5a1.56,1.56,0,1,0-.94,3c4.69,1.47,9.66,3.15,14.75,5A1.53,1.53,0,0,0,119,116.43Z" transform="translate(-30.71 -15)"/><path d="M63.48,165.79a1.56,1.56,0,1,0-2.27,2.15c3.46,3.64,7.2,7.37,11.13,11.12a1.57,1.57,0,0,0,2.16-2.27C70.61,173.08,66.9,169.38,63.48,165.79Z" transform="translate(-30.71 -15)"/><path d="M135.07,225.83a1.57,1.57,0,0,0-1.81,2.56q6.31,4.45,12.9,8.91a1.54,1.54,0,0,0,.87.27,1.56,1.56,0,0,0,.88-2.86Q141.36,230.27,135.07,225.83Z" transform="translate(-30.71 -15)"/><path d="M110,207.22a1.56,1.56,0,1,0-1.92,2.47q6.05,4.73,12.48,9.5a1.56,1.56,0,1,0,1.86-2.51Q116,211.93,110,207.22Z" transform="translate(-30.71 -15)"/><path d="M73.58,103.91c4.72.77,9.82,1.84,15.18,3.18a1.47,1.47,0,0,0,.38,0,1.56,1.56,0,0,0,.38-3.08c-5.44-1.37-10.63-2.46-15.44-3.24a1.56,1.56,0,1,0-.5,3.09Z" transform="translate(-30.71 -15)"/><path d="M370,293a1.57,1.57,0,0,0,1.4.86,1.61,1.61,0,0,0,.7-.17,1.57,1.57,0,0,0,.69-2.1,100.94,100.94,0,0,0-8.39-13.47,1.56,1.56,0,1,0-2.53,1.83A98,98,0,0,1,370,293Z" transform="translate(-30.71 -15)"/><path d="M33.84,117.31a15.66,15.66,0,0,1,.31-3.17,1.56,1.56,0,1,0-3.06-.63,18.76,18.76,0,0,0-.37,3.8,33.12,33.12,0,0,0,2.81,12.32,1.56,1.56,0,0,0,1.45,1,1.54,1.54,0,0,0,.59-.12,1.56,1.56,0,0,0,.86-2A30.09,30.09,0,0,1,33.84,117.31Z" transform="translate(-30.71 -15)"/><path d="M58.29,99.31h-.94a44.27,44.27,0,0,0-15,2.22,1.57,1.57,0,0,0,1.08,2.94,41.12,41.12,0,0,1,13.95-2h.92a1.57,1.57,0,0,0,0-3.13Z" transform="translate(-30.71 -15)"/><path d="M43.8,141.85a1.56,1.56,0,0,0-2.6,1.74,153.77,153.77,0,0,0,9.52,12.61,1.56,1.56,0,1,0,2.41-2A150,150,0,0,1,43.8,141.85Z" transform="translate(-30.71 -15)"/><path d="M315.1,317.35c-4.72-1.28-9.73-2.79-14.9-4.49a1.56,1.56,0,0,0-1,3c5.22,1.72,10.28,3.24,15.06,4.54a1.51,1.51,0,0,0,.41.06,1.56,1.56,0,0,0,.41-3.07Z" transform="translate(-30.71 -15)"/><path d="M174.16,251.63q-6.71-4.14-13.2-8.34a1.56,1.56,0,0,0-1.7,2.63q6.51,4.21,13.26,8.37a1.57,1.57,0,0,0,1.64-2.67Z" transform="translate(-30.71 -15)"/><path d="M345.52,323a127.59,127.59,0,0,1-15.3-2.08,1.56,1.56,0,1,0-.59,3.07,130.71,130.71,0,0,0,15.68,2.14h.11a1.57,1.57,0,0,0,.1-3.13Z" transform="translate(-30.71 -15)"/><path d="M377.61,307.06a1.61,1.61,0,0,0-1.65-1.48,1.56,1.56,0,0,0-1.48,1.65c0,.36,0,.72,0,1.07a13.28,13.28,0,0,1-1.8,7c-2.13,3.5-6.17,5.87-12,7a1.57,1.57,0,0,0,.3,3.1l.31,0c6.75-1.35,11.48-4.2,14.08-8.47a16.38,16.38,0,0,0,2.26-8.63C377.64,307.89,377.63,307.48,377.61,307.06Z" transform="translate(-30.71 -15)"/><path d="M343.88,254.3a1.56,1.56,0,0,0-2.23,2.19c3.8,3.87,7.36,7.71,10.58,11.4a1.56,1.56,0,1,0,2.36-2.05C351.33,262.1,347.73,258.22,343.88,254.3Z" transform="translate(-30.71 -15)"/><path d="M331.54,246.06a1.57,1.57,0,0,0,1.07-2.71c-3.69-3.43-7.62-6.95-11.69-10.48a1.56,1.56,0,0,0-2,2.37c4,3.5,8,7,11.61,10.4A1.56,1.56,0,0,0,331.54,246.06Z" transform="translate(-30.71 -15)"/><path d="M201,267.51q-6.72-3.79-13.52-7.81a1.57,1.57,0,0,0-1.59,2.7q6.82,4,13.58,7.84a1.55,1.55,0,0,0,.77.2,1.57,1.57,0,0,0,.77-2.93Z" transform="translate(-30.71 -15)"/><path d="M285.51,307.68c-4.72-1.77-9.6-3.7-14.5-5.73a1.56,1.56,0,1,0-1.19,2.89c4.93,2,9.84,4,14.6,5.77a1.55,1.55,0,0,0,.55.1,1.56,1.56,0,0,0,.55-3Z" transform="translate(-30.71 -15)"/><path d="M228.55,282.28q-6.85-3.49-13.83-7.24a1.57,1.57,0,0,0-1.48,2.76q7,3.76,13.89,7.27a1.56,1.56,0,0,0,1.42-2.79Z" transform="translate(-30.71 -15)"/><path d="M256.69,295.77q-7-3.12-14.15-6.56a1.56,1.56,0,1,0-1.35,2.82q7.22,3.46,14.23,6.6a1.58,1.58,0,0,0,.64.14,1.57,1.57,0,0,0,.64-3Z" transform="translate(-30.71 -15)"/><path d="M258,101.85a1.69,1.69,0,0,1,1.27-1.94,1.51,1.51,0,0,1,1.84,1.23q1.38,7.71,2.6,15.95a1.69,1.69,0,0,1-1.33,1.9,1.52,1.52,0,0,1-1.8-1.29Q259.42,109.52,258,101.85Z" transform="translate(-30.71 -15)"/><path d="M251.14,70.62a1.7,1.7,0,0,1,1.11-2,1.52,1.52,0,0,1,1.95,1.05c1.34,5,2.63,10.23,3.82,15.67a1.7,1.7,0,0,1-1.2,2,1.52,1.52,0,0,1-1.89-1.15C253.74,80.75,252.47,75.53,251.14,70.62Z" transform="translate(-30.71 -15)"/><path d="M265.76,165.73a1.71,1.71,0,0,1,1.47-1.8,1.52,1.52,0,0,1,1.7,1.43q.56,8,1,16.19a1.69,1.69,0,0,1-1.5,1.77,1.52,1.52,0,0,1-1.66-1.47Q266.33,173.66,265.76,165.73Z" transform="translate(-30.71 -15)"/><path d="M262.74,133.64a1.7,1.7,0,0,1,1.38-1.86,1.52,1.52,0,0,1,1.76,1.34q.93,7.87,1.71,16.1a1.7,1.7,0,0,1-.22,1,1.67,1.67,0,0,1-1.21.83,1.52,1.52,0,0,1-1.73-1.39Q263.67,141.47,262.74,133.64Z" transform="translate(-30.71 -15)"/><path d="M192.18,49c-1.8,4.67-3.55,9.86-5.18,15.4a1.66,1.66,0,0,1-2,1.16,1.56,1.56,0,0,1-1.05-2c1.66-5.63,3.43-10.91,5.27-15.67a1.63,1.63,0,0,1,2.06-1A1.58,1.58,0,0,1,192.18,49Z" transform="translate(-30.71 -15)"/><path d="M201.11,413.11a1.66,1.66,0,0,1,0,1.7,1.75,1.75,0,0,1-.51.56,1.54,1.54,0,0,1-2.19-.42,100.28,100.28,0,0,1-7.29-14.35,1.69,1.69,0,0,1,.84-2.16,1.52,1.52,0,0,1,2.08.77A97.36,97.36,0,0,0,201.11,413.11Z" transform="translate(-30.71 -15)"/><path d="M224.6,19.47a15,15,0,0,0-2.91-1.3,1.57,1.57,0,0,1-1-2,1.63,1.63,0,0,1,2-1.08,17.86,17.86,0,0,1,3.49,1.55,31.84,31.84,0,0,1,9.22,8.7,1.65,1.65,0,0,1,.09,1.8,1.69,1.69,0,0,1-.41.48,1.54,1.54,0,0,1-2.22-.24A28.92,28.92,0,0,0,224.6,19.47Z" transform="translate(-30.71 -15)"/><path d="M196.2,32.75l.49-.86a48.58,48.58,0,0,1,9.78-12.57,1.55,1.55,0,0,1,2.23.16,1.64,1.64,0,0,1,.12,1.85,1.72,1.72,0,0,1-.36.44,45.13,45.13,0,0,0-9.05,11.68l-.47.83v0a1.57,1.57,0,1,1-2.73-1.54Z" transform="translate(-30.71 -15)"/><path d="M240.68,40.77a1.69,1.69,0,0,1,.77-2.19,1.52,1.52,0,0,1,2.11.69,154.82,154.82,0,0,1,6,15,1.7,1.7,0,0,1-1,2.11,1.52,1.52,0,0,1-2-.92A150.82,150.82,0,0,0,240.68,40.77Z" transform="translate(-30.71 -15)"/><path d="M251,375.23c1.36-4.93,2.67-10.25,3.9-15.8a1.66,1.66,0,0,1,1.9-1.3,1.55,1.55,0,0,1,1.19,1.89c-1.24,5.61-2.57,11-3.94,16a1.67,1.67,0,0,1-.17.4,1.63,1.63,0,0,1-1.79.8A1.56,1.56,0,0,1,251,375.23Z" transform="translate(-30.71 -15)"/><path d="M267.7,214.17q-.08-8.17-.32-16.17a1.7,1.7,0,0,1,1.54-1.73,1.52,1.52,0,0,1,1.63,1.5q.24,8,.33,16.24a1.7,1.7,0,0,1-.23.86,1.66,1.66,0,0,1-1.34.84A1.52,1.52,0,0,1,267.7,214.17Z" transform="translate(-30.71 -15)"/><path d="M239.92,405.72a140.14,140.14,0,0,0,6.2-15,1.64,1.64,0,0,1,2-1,1.57,1.57,0,0,1,.94,2,143.43,143.43,0,0,1-6.35,15.34l-.05.1a1.61,1.61,0,0,1-2.08.69A1.59,1.59,0,0,1,239.92,405.72Z" transform="translate(-30.71 -15)"/><path d="M209.33,427a1.66,1.66,0,0,1-.42-2.24,1.59,1.59,0,0,1,2.2-.52c.3.2.61.39.91.56a12.81,12.81,0,0,0,7,1.85c4.15-.19,8.32-2.69,12.39-7.44a1.57,1.57,0,0,1,2.24-.2,1.62,1.62,0,0,1,.29,2,1.85,1.85,0,0,1-.19.26c-4.7,5.47-9.65,8.36-14.72,8.59a15.79,15.79,0,0,1-8.67-2.25C210,427.44,209.67,427.22,209.33,427Z" transform="translate(-30.71 -15)"/><path d="M181.21,370a1.7,1.7,0,0,1,1.14-2,1.51,1.51,0,0,1,1.93,1.09c1.37,5.39,2.83,10.55,4.35,15.31a1.68,1.68,0,0,1-.15,1.34,1.7,1.7,0,0,1-.87.74,1.52,1.52,0,0,1-2-1C184.07,380.65,182.59,375.43,181.21,370Z" transform="translate(-30.71 -15)"/><path d="M267.41,246.56q.23-8,.3-16.2a1.7,1.7,0,0,1,1.6-1.67,1.53,1.53,0,0,1,1.57,1.57q-.07,8.21-.31,16.26a1.68,1.68,0,0,1-.22.8,1.66,1.66,0,0,1-1.41.84A1.53,1.53,0,0,1,267.41,246.56Z" transform="translate(-30.71 -15)"/><path d="M258,343.47c.93-5.18,1.81-10.58,2.62-16.06a1.66,1.66,0,0,1,1.8-1.44,1.54,1.54,0,0,1,1.33,1.79c-.81,5.51-1.7,10.94-2.64,16.16a1.71,1.71,0,0,1-.2.55,1.65,1.65,0,0,1-1.65.83A1.54,1.54,0,0,1,258,343.47Z" transform="translate(-30.71 -15)"/><path d="M265.82,279q.56-8,1-16.2a1.69,1.69,0,0,1,1.66-1.61,1.53,1.53,0,0,1,1.5,1.64q-.4,8.26-1,16.27a1.72,1.72,0,0,1-.22.73,1.66,1.66,0,0,1-1.47.84A1.53,1.53,0,0,1,265.82,279Z" transform="translate(-30.71 -15)"/><path d="M262.8,311.3q.94-7.9,1.71-16.16a1.67,1.67,0,0,1,1.73-1.53,1.53,1.53,0,0,1,1.42,1.71q-.78,8.3-1.72,16.24a1.73,1.73,0,0,1-.22.65,1.65,1.65,0,0,1-1.55.84A1.54,1.54,0,0,1,262.8,311.3Z" transform="translate(-30.71 -15)"/><path d="M129.55,317.37c-5.29,1.66-10.46,3.14-15.36,4.42a1.57,1.57,0,0,0-1.14,1.93,1.61,1.61,0,0,0,1.48,1.17,1.63,1.63,0,0,0,.49-.05c5-1.29,10.17-2.79,15.52-4.46a1.57,1.57,0,0,0,1-2A1.63,1.63,0,0,0,129.55,317.37Z" transform="translate(-30.71 -15)"/><path d="M98.61,325.33a154.14,154.14,0,0,1-15.75,2.23,1.58,1.58,0,0,0-1.46,1.71,1.6,1.6,0,0,0,1.53,1.44h.21a157.51,157.51,0,0,0,16.1-2.27,1.57,1.57,0,0,0,1.27-1.85A1.61,1.61,0,0,0,98.61,325.33Z" transform="translate(-30.71 -15)"/><path d="M189.13,294.18q-7.42,3.37-14.63,6.45a1.56,1.56,0,0,0-.83,2.07,1.62,1.62,0,0,0,1.41.95,1.66,1.66,0,0,0,.71-.13Q183,300.43,190.5,297a1.56,1.56,0,0,0,.78-2.09A1.62,1.62,0,0,0,189.13,294.18Z" transform="translate(-30.71 -15)"/><path d="M159.69,306.68q-7.66,3-15,5.61a1.56,1.56,0,0,0-1,2,1.62,1.62,0,0,0,2.06.94q7.36-2.62,15.07-5.65a1.56,1.56,0,0,0,.89-2.05A1.63,1.63,0,0,0,159.69,306.68Z" transform="translate(-30.71 -15)"/><path d="M331,117.94a1.68,1.68,0,0,0,.51-.06c5.4-1.5,10.62-2.79,15.51-3.83a1.57,1.57,0,0,0,1.23-1.87,1.62,1.62,0,0,0-1.92-1.21c-5,1.06-10.24,2.36-15.7,3.87a1.57,1.57,0,0,0-1.11,1.95A1.61,1.61,0,0,0,331,117.94Z" transform="translate(-30.71 -15)"/><path d="M308,124.32c3.23-.82,6.38-1.56,9.4-2.2a1.57,1.57,0,0,0,1.23-1.87A1.62,1.62,0,0,0,316.7,119c-2.89.62-5.88,1.31-9,2.09C305.53,121.69,306,124.83,308,124.32Z" transform="translate(-30.71 -15)"/><path d="M217.91,280.26q-7.21,3.68-14.31,7.12a1.56,1.56,0,0,0-.73,2.11,1.62,1.62,0,0,0,1.37.88,1.66,1.66,0,0,0,.78-.16q7.12-3.45,14.37-7.15a1.56,1.56,0,0,0,.68-2.13A1.62,1.62,0,0,0,217.91,280.26Z" transform="translate(-30.71 -15)"/><path d="M95.81,246.17a1.64,1.64,0,0,0-2.27-.12c-4.13,3.64-8.1,7.28-11.78,10.83a1.55,1.55,0,0,0,0,2.23,1.63,1.63,0,0,0,2.28,0c3.65-3.51,7.58-7.12,11.68-10.73A1.55,1.55,0,0,0,95.81,246.17Z" transform="translate(-30.71 -15)"/><path d="M120,224.68a1.64,1.64,0,0,0-2.27-.12c-4.13,3.64-8.1,7.28-11.78,10.83a1.55,1.55,0,0,0,0,2.23,1.63,1.63,0,0,0,2.28,0c3.65-3.51,7.58-7.12,11.68-10.73A1.55,1.55,0,0,0,120,224.68Z" transform="translate(-30.71 -15)"/><path d="M53.4,293.22a1.63,1.63,0,0,0-2.18.63c-3.12,5.63-5,10.76-5.6,15.26A1.58,1.58,0,0,0,47,310.88h.14a1.6,1.6,0,0,0,1.66-1.37c.55-4.11,2.32-8.88,5.24-14.17A1.56,1.56,0,0,0,53.4,293.22Z" transform="translate(-30.71 -15)"/><path d="M67.12,327.5c-6.19-.74-10.9-2.44-14-5.07a1.63,1.63,0,0,0-2.27.16,1.55,1.55,0,0,0,.17,2.22c3.59,3.05,8.89,5,15.73,5.82h.12a1.57,1.57,0,0,0,.26-3.14Z" transform="translate(-30.71 -15)"/><path d="M70.54,268.29c-3.87,4.2-7.36,8.3-10.38,12.21a1.55,1.55,0,0,0,.31,2.2,1.63,1.63,0,0,0,2.26-.3c3-3.83,6.39-7.86,10.2-12a1.55,1.55,0,0,0-.12-2.23A1.64,1.64,0,0,0,70.54,268.29Z" transform="translate(-30.71 -15)"/><path d="M300.34,231.57Q293.84,236,287,240.38a1.55,1.55,0,0,0-.45,2.18,1.62,1.62,0,0,0,2.23.45q6.83-4.42,13.35-8.85a1.56,1.56,0,0,0,.4-2.2A1.64,1.64,0,0,0,300.34,231.57Z" transform="translate(-30.71 -15)"/><path d="M378.66,107.44a103.39,103.39,0,0,0-16.32.81,1.58,1.58,0,0,0-1.4,1.76,1.6,1.6,0,0,0,1.53,1.38h.27a99.45,99.45,0,0,1,15.8-.78,1.6,1.6,0,0,0,1.67-1.51A1.63,1.63,0,0,0,378.66,107.44Z" transform="translate(-30.71 -15)"/><path d="M374.12,171.42c-3.48,3.63-7.27,7.37-11.28,11.11a1.55,1.55,0,0,0-.05,2.23,1.63,1.63,0,0,0,2.28.05c4-3.78,7.88-7.56,11.4-11.22a1.55,1.55,0,0,0-.08-2.23A1.64,1.64,0,0,0,374.12,171.42Z" transform="translate(-30.71 -15)"/><path d="M396.08,146.51a1.64,1.64,0,0,0-2.21.51,125.68,125.68,0,0,1-9.24,12.64,1.55,1.55,0,0,0,.25,2.21,1.63,1.63,0,0,0,2.26-.24,129.12,129.12,0,0,0,9.47-13A1.56,1.56,0,0,0,396.08,146.51Z" transform="translate(-30.71 -15)"/><path d="M402.58,117.57a17.57,17.57,0,0,0-7.64-6.68,1.62,1.62,0,0,0-2.16.71,1.56,1.56,0,0,0,.73,2.11,14.41,14.41,0,0,1,6.29,5.45,13.88,13.88,0,0,1,1.79,7.9,25.93,25.93,0,0,1-1.11,6.14,1.6,1.6,0,0,0,1.48,2,1.6,1.6,0,0,0,1.61-1.13,29,29,0,0,0,1.23-6.88A16.94,16.94,0,0,0,402.58,117.57Z" transform="translate(-30.71 -15)"/><path d="M273.56,248.91q-6.72,4.15-13.67,8.25a1.56,1.56,0,0,0-.54,2.16,1.62,1.62,0,0,0,1.31.76,1.65,1.65,0,0,0,.9-.23q7-4.12,13.72-8.29a1.55,1.55,0,0,0,.5-2.17A1.63,1.63,0,0,0,273.56,248.91Z" transform="translate(-30.71 -15)"/><path d="M351,193.12c-3.87,3.33-8,6.74-12.23,10.15a1.55,1.55,0,0,0-.22,2.22,1.63,1.63,0,0,0,2.27.22c4.28-3.43,8.42-6.87,12.31-10.22a1.55,1.55,0,0,0,.14-2.22A1.62,1.62,0,0,0,351,193.12Z" transform="translate(-30.71 -15)"/><path d="M246.06,265.14q-7,4-14,7.7a1.56,1.56,0,0,0-.63,2.14,1.62,1.62,0,0,0,1.34.82,1.64,1.64,0,0,0,.84-.19q7-3.76,14.05-7.74a1.55,1.55,0,0,0,.59-2.15A1.63,1.63,0,0,0,246.06,265.14Z" transform="translate(-30.71 -15)"/><path d="M326.24,213q-6.22,4.69-12.84,9.43a1.55,1.55,0,0,0-.35,2.2,1.63,1.63,0,0,0,2.25.34q6.65-4.76,12.9-9.47a1.55,1.55,0,0,0,.29-2.21A1.63,1.63,0,0,0,326.24,213Z" transform="translate(-30.71 -15)"/><circle cx="27.55" cy="313" r="14.16"/><circle cx="317.37" cy="247" r="14.16"/><circle cx="233.96" cy="125.66" r="14.16"/></svg>