<svg id="_Layer_" data-name="&lt;Layer&gt;" xmlns="http://www.w3.org/2000/svg" viewBox="0 0 2979.71 1770"><defs><style>.cls-1{fill:#fff;}.cls-2,.cls-26,.cls-6,.cls-9{fill:#fd425f;}.cls-3{fill:#f492a6;}.cls-4{fill:#bdcfd3;}.cls-5{fill:#181919;}.cls-5,.cls-9{opacity:0.34;}.cls-6{opacity:0.44;}.cls-7{fill:#f14910;}.cls-8{fill:#f3e8cb;}.cls-10{fill:#f9f2f3;}.cls-11{fill:#f9f7f7;}.cls-12{fill:#050505;}.cls-13{fill:#dbe1ff;}.cls-14{fill:#0a0a0a;}.cls-15{fill:#50515a;}.cls-16{fill:#ef9d86;}.cls-17,.cls-24{fill:#070707;}.cls-18{fill:#ea9f8b;}.cls-19{fill:#ef937b;}.cls-20{fill:#ea8c73;}.cls-21{fill:#f49a82;}.cls-22{fill:#efa28e;}.cls-23{fill:#121841;}.cls-24{opacity:0.43;}.cls-25{fill:#f5f5f7;}.cls-26{opacity:0.54;}.cls-27{fill:#59595b;}.cls-28{fill:#1b1b1c;}.cls-29{fill:#1c1d1e;}.cls-30{fill:#0c0b0c;}.cls-31{fill:#fd5e5a;}.cls-32{fill:#f7f2f6;}.cls-33{fill:#fc7575;}.cls-34{fill:#ff8d8d;}.cls-35{fill:#020202;}.cls-36{fill:#2d1175;}.cls-37{fill:#754123;}.cls-38{fill:#60331d;}</style></defs><title>chicacontenta</title><rect class="cls-1" width="2979.71" height="1770"/><ellipse class="cls-2" cx="1411.88" cy="1451.9" rx="954.61" ry="35.63"/><path class="cls-3" d="M2624.92,505.91c-39.29-26.2-83.12-46.38-127.26-61.81-488.46-170.75-1017-179.37-1519-69.6-164.95,36.07-343,82.09-478.54,191.15C367.87,672,312.4,868,411,1019.82c51.85,79.84,135.44,131.21,219.93,171.31,289.89,137.6,611.56,196.51,928.79,207.12,397.44,13.29,1015.78,5.77,1186.86-460.89,36.88-100.61,41.89-218.6-9-312.43C2710.82,575.62,2671,536.63,2624.92,505.91Z"/><path class="cls-2" d="M1930.62,1272.58,1891.12,1236c-17.06-55.59-25.53-117.78-12.37-179a484.4,484.4,0,0,1,90.4,29.35l21.29,45.94,10.14-30.2c22.26,12.66,43.13,28.3,58,47.29l-12.05,62.57,28.62-33.55a92.08,92.08,0,0,1,4.93,19.36c14.62,103.66,12.5,232.15,12.5,232.15H1992s-47.48-59.39-82.64-143.56Z"/><path class="cls-4" d="M1989.31,1386.83c24.39,12.47,41.81,12.57,48.09,12.06-31.27-42.13-58.36-95.51-79.37-143.6q-2.26.11-4.46.1c-27.42,0-48.88-12-64.13-25q-.85-2.9-1.67-5.82c15.47,14.35,38.55,28.49,68.87,27.51-6.12-14.11-11.91-28.22-17.51-42.49-23-3.07-45.7-17.46-61.49-29.81q-.41-2.44-.8-4.89c15.22,12.23,38.08,27.51,60.92,31.18-28.34-72.75-46.14-131.53-46.32-132.18l-5.65-13.2,8,9.17c.31,1.13,15,48.78,37.21,108.95,11.83-25.86,5.41-89.06,3.4-106.12l3.35,1.17c2.35,20,8.55,84.41-5.24,109,14.16,38,32,81.36,52.77,122.77,8.45-13.18-5.58-98.43,17.95-132.06,14.35-20.52,16.28-44.41,15.5-60.29q1.64,1.11,3.25,2.24c.48,16.37-2,39.72-16.18,60-23.7,33.88-7.43,121.83-18.95,133.27q6.12,12.08,12.56,23.86c23.62-76.66,23.31-79.38,20.08-109.77-1.85-17.48-3.6-34,7.71-45.65,9.82-10.12,13.06-30.17,14-46.43q1.55,1.41,3.07,2.84c-1.14,16.28-4.75,35.56-14.79,45.91-18,18.57.7,51.7-7.4,84.62-7.34,29.8-18.63,66.34-20.5,72.35,8.83,15.89,18.1,31.17,27.76,45.39,4-3.48,20.73-20.4,16-56-3.86-28.91,22.34-65.71,39.78-86.58q.23,2.32.45,4.65c-17,20.87-40.59,55.2-37.08,81.49,5.08,38-13,55.58-17.28,59.14,11.68,17,23.93,32.32,36.65,45.29h-4.47q-3.35-3.51-6.66-7.23c-12.41,4-31.64,1.88-50.73-12.74-11.58-8.87-24-10-34.3-8.5l-2-3c11.28-2,25.19-1.09,38.18,8.86,21.72,16.62,40.2,14.17,46.44,12.63-4.94-5.69-9.79-11.71-14.54-18-16,2.43-36.89-4.56-51.78-12.17a65.32,65.32,0,0,0-28.37-7l-2-3.28A68.87,68.87,0,0,1,1989.31,1386.83Z"/><path class="cls-5" d="M2063,1192.59l12.12-14.21a92.08,92.08,0,0,1,4.93,19.36c14.62,103.66,12.5,232.15,12.5,232.15S2053.29,1335.71,2063,1192.59Z"/><path class="cls-2" d="M2422.9,1348.32c-4.23,0-58.23-28.37-150.33,0s-159.28,81.56-159.28,81.56,105.29,21,201.63,4.64S2422.9,1348.32,2422.9,1348.32Z"/><path class="cls-2" d="M2124.28,1422.13c60.46-42.91,153.08-87.69,231-86.39-16.37,47.7-38.39,82.42-82.23,103.74-66.21,4.77-129-3.87-151.39-7.5C2122.42,1428.91,2123.29,1425.62,2124.28,1422.13Z"/><path class="cls-2" d="M2121.9,1014l39.51,42.95-15.59-89.71c14.34-25.07,30.35-48.35,47.61-68.51,47.64-55.65,133.39-138.31,133.39-138.31,19.94,41.63,33.54,82,41.91,121l-44.3,46.76,51.36-5.29c38,301.6-228.42,507-228.42,507H2092.6s-24.61-245.51-4.76-320.81A600,600,0,0,1,2121.9,1014Z"/><path class="cls-1" d="M2083.12,1136.56c.54-4.89,1.16-9.5,1.86-13.79,11.55,32.81,42.11,111.79,75.32,132.5q1.7-4.94,3.48-9.86c-33.08-12.63-59.8-97.3-72.93-147.32q1.68-5.9,3.51-11.81c13.76,54.76,41.55,141.93,71.65,153,9.5-25.51,20.59-50.35,33.43-72.17,10.54-17.92,21.32-42.57,31.9-70.92-28.57-22.51-50.42-118.13-60.15-168.84q2.46-3.48,5-6.89c8.9,47.31,31,145.76,57.54,169.3,7.62-20.87,15.12-43.56,22.34-66.91-24.26-37.52-32.3-117-34.82-155.18q3-3.21,6-6.45c2,33.28,9.07,113.64,31.34,153.4,35.62-117.06,65.43-245.92,65.85-247.91l2.38-4.54,0,4.93c-.48,2.23-33.62,165.41-75.46,291.32,47.2,16.23,98.91-18.07,126.86-41.35q-.35,4.57-.78,9.1a268.87,268.87,0,0,1-24.29,17.37c-26.9,17-52.65,25.6-76,25.6a85.28,85.28,0,0,1-27.89-4.54c-11.49,34-23.43,65-35.25,88.9,42.51,15.28,104.32-1.71,138.72-13.79q-1.37,4-2.8,8c-25,8.53-61.48,18.48-95.78,18.48-15.19,0-30-2-43.11-6.84q-3.08,5.92-6.15,11.14c-55.3,94-77.92,245.33-79.92,259.37h-6.42c.55-4,12.13-86,39.63-168.33C2125.92,1242.56,2097.17,1174.64,2083.12,1136.56Z"/><path class="cls-6" d="M2147.51,1429.89h-51s11.9-112.87,113.23-188l12.2,19.75,1.83-29.52q8.82-5.76,18.46-11.11l15.85,38.24,6.88-49.63a353.68,353.68,0,0,1,69.19-22.7C2267.84,1335.17,2151.87,1426.49,2147.51,1429.89Z"/><path class="cls-2" d="M1927.9,1231.87l10.66,48.8,12.88-35a307.13,307.13,0,0,1,38.92,29.29l3.78,24.26,12.5-8.46c32.65,34.58,56.88,79.93,60.54,139.13h-84.68s-182.1-52.1-188.45-244.15C1794.05,1185.74,1860.5,1195.62,1927.9,1231.87Z"/><path class="cls-4" d="M2034.58,1429.89h-14.15c-99.58-55.73-210.91-224-215.77-231.4l-6.9-11,12.16,7.3C1811.15,1196.68,1933.89,1382.23,2034.58,1429.89Z"/><path class="cls-7" d="M2210.24,1269.44l10.45,16.92,1.57-25.29q7.56-4.93,15.81-9.52l13.58,32.76,5.89-42.52c27.79-12.54,60.87-21.88,100.24-26.09,0,0-8.47,118.94-59.28,171.31s-130.22,43.37-130.22,43.37h-55.05S2123.42,1333.79,2210.24,1269.44Z"/><path class="cls-8" d="M2162.13,1430.4h-8.32c121.3-86.25,195-207.11,195.73-208.35l6.38-3.89-2.33,6.48C2352.86,1225.86,2280.94,1343.86,2162.13,1430.4Z"/><path class="cls-2" d="M861.84,1269.6l39.5-36.59c17.06-55.59,25.53-117.78,12.37-179a484.25,484.25,0,0,0-90.4,29.35L802,1129.28l-10.14-30.2c-22.26,12.66-43.12,28.3-58,47.29l12.05,62.56-28.62-33.55a92.07,92.07,0,0,0-4.93,19.36c-14.62,103.66-12.5,232.15-12.5,232.15H800.44s47.48-59.39,82.64-143.56Z"/><path class="cls-2" d="M803.14,1383.84c-24.39,12.47-41.81,12.57-48.09,12.06,31.27-42.12,58.36-95.51,79.37-143.6q2.26.11,4.46.1c27.42,0,48.88-12,64.13-25q.85-2.9,1.67-5.82c-15.47,14.35-38.55,28.49-68.87,27.5,6.11-14.11,11.91-28.22,17.51-42.49,23-3.07,45.7-17.46,61.49-29.81q.42-2.44.8-4.89c-15.22,12.23-38.08,27.51-60.92,31.18,28.34-72.75,46.14-131.53,46.32-132.18l5.66-13.19-8,9.17c-.31,1.13-15,48.78-37.21,108.95-11.84-25.86-5.41-89.06-3.4-106.12l-3.35,1.17c-2.35,20-8.55,84.41,5.24,109-14.16,38-32,81.36-52.77,122.77-8.45-13.18,5.58-98.43-17.94-132.06-14.35-20.52-16.28-44.41-15.51-60.29q-1.64,1.11-3.25,2.25c-.48,16.37,2,39.72,16.18,60,23.7,33.88,7.43,121.83,18.95,133.27q-6.12,12.08-12.57,23.86c-23.62-76.66-23.3-79.38-20.08-109.78,1.85-17.48,3.6-34-7.71-45.64-9.82-10.12-13.06-30.17-14-46.43q-1.56,1.4-3.07,2.84c1.14,16.28,4.75,35.56,14.79,45.9,18,18.57-.71,51.71,7.4,84.62,7.34,29.8,18.63,66.34,20.5,72.35-8.83,15.89-18.1,31.17-27.76,45.39-4-3.48-20.73-20.4-16-56,3.86-28.91-22.34-65.71-39.78-86.58q-.22,2.32-.45,4.65c17,20.87,40.59,55.2,37.08,81.48-5.08,38,13,55.58,17.28,59.14-11.68,16.95-23.93,32.31-36.65,45.29h4.47q3.35-3.51,6.66-7.23c12.41,4,31.64,1.88,50.73-12.74,11.58-8.86,24-10,34.3-8.5l2-3c-11.28-2-25.19-1.09-38.19,8.85-21.71,16.63-40.2,14.17-46.44,12.63q7.4-8.54,14.54-18c16,2.43,36.9-4.56,51.78-12.17a65.31,65.31,0,0,1,28.37-7l2-3.28A68.88,68.88,0,0,0,803.14,1383.84Z"/><path class="cls-9" d="M729.42,1189.6l-12.13-14.21a92.07,92.07,0,0,0-4.93,19.36c-14.62,103.66-12.5,232.15-12.5,232.15S739.16,1332.72,729.42,1189.6Z"/><path class="cls-2" d="M369.56,1345.33c4.23,0,58.23-28.37,150.33,0s159.28,81.57,159.28,81.57-105.29,21-201.63,4.64S369.56,1345.33,369.56,1345.33Z"/><path class="cls-2" d="M668.18,1419.14c-60.46-42.91-153.08-87.69-231-86.39,16.37,47.7,38.39,82.42,82.23,103.73,66.21,4.77,129-3.87,151.38-7.5C670,1425.92,669.17,1422.64,668.18,1419.14Z"/><path class="cls-2" d="M670.56,1011,631,1054l15.59-89.71c-14.35-25.07-30.35-48.35-47.61-68.51-47.64-55.65-133.39-138.31-133.39-138.31-19.94,41.64-33.54,82-41.91,121L468,925.23l-51.36-5.3c-38,301.61,228.42,507,228.42,507h54.79s24.62-245.51,4.76-320.81A600,600,0,0,0,670.56,1011Z"/><path class="cls-10" d="M709.34,1133.57c-.54-4.89-1.16-9.5-1.86-13.8-11.55,32.81-42.11,111.79-75.32,132.5q-1.7-4.94-3.48-9.87c33.08-12.63,59.8-97.29,72.93-147.32q-1.69-5.9-3.51-11.81c-13.76,54.76-41.55,141.93-71.66,153-9.5-25.51-20.59-50.35-33.43-72.17-10.54-17.92-21.32-42.57-31.9-70.92,28.57-22.51,50.42-118.12,60.15-168.84q-2.47-3.48-5-6.89c-8.9,47.31-31,145.76-57.54,169.3-7.62-20.87-15.12-43.56-22.34-66.92,24.26-37.52,32.3-117,34.82-155.18q-3-3.22-6-6.45c-2,33.29-9.07,113.64-31.34,153.4C498.25,894.59,468.44,765.73,468,763.74l-2.38-4.54,0,4.93c.48,2.23,33.62,165.41,75.46,291.32-47.2,16.23-98.91-18.07-126.85-41.35q.35,4.57.77,9.1a269,269,0,0,0,24.29,17.37c26.9,17,52.65,25.6,76,25.6a85.27,85.27,0,0,0,27.89-4.54c11.49,34,23.43,65,35.25,88.9-42.51,15.28-104.32-1.71-138.72-13.79q1.38,4,2.81,8c25,8.53,61.47,18.48,95.78,18.48,15.19,0,30-2,43.11-6.84q3.08,5.92,6.15,11.14c55.3,94,77.92,245.33,79.92,259.37h6.42c-.55-4-12.13-86-39.63-168.33C666.53,1239.57,695.28,1171.65,709.34,1133.57Z"/><path class="cls-6" d="M644.95,1426.9h51s-11.9-112.87-113.23-188l-12.19,19.75-1.84-29.52q-8.82-5.76-18.46-11.11l-15.85,38.24-6.88-49.63a353.58,353.58,0,0,0-69.19-22.7C524.62,1332.18,640.59,1423.5,644.95,1426.9Z"/><path class="cls-2" d="M864.56,1228.88l-10.66,48.8-12.88-35A306.69,306.69,0,0,0,802.1,1272l-3.78,24.26-12.5-8.46c-32.65,34.57-56.88,79.93-60.54,139.13H810s182.1-52.1,188.45-244.15C998.41,1182.75,932,1192.63,864.56,1228.88Z"/><path class="cls-2" d="M757.88,1426.9H772c99.58-55.73,210.9-224,215.77-231.4l6.9-11-12.16,7.3C981.31,1193.69,858.57,1379.24,757.88,1426.9Z"/><path class="cls-7" d="M582.22,1266.45l-10.45,16.92-1.57-25.29q-7.55-4.94-15.81-9.52l-13.58,32.76-5.89-42.52c-27.79-12.54-60.87-21.88-100.24-26.09,0,0,8.47,118.94,59.28,171.31s130.22,43.38,130.22,43.38h55S669,1330.8,582.22,1266.45Z"/><path class="cls-11" d="M630.33,1427.41h8.32c-121.3-86.25-195-207.11-195.73-208.35l-6.38-3.89,2.33,6.48C439.6,1222.88,511.52,1340.88,630.33,1427.41Z"/><path class="cls-2" d="M679.17,1426.9s-101.61-46.87-169-41.08S373.28,1469,373.28,1469s22.11,8.19,54,16.32l30-24.61-8.39,29.74c49.75,10.86,113.48,18.14,157-.92C687.12,1454,679.17,1426.9,679.17,1426.9Z"/><path class="cls-11" d="M679.17,1426.9s-1.3-.61-5.3-2.35c-20.17-1.29-85.16-4.81-141.81-2.64-9.47-7.56-13.4-24.15-15-36.5q-2.35.08-4.64.23c1.49,11.6,5,27.07,13.26,36.53-2.62.12-21,1.67-27.33,2.66-10-7.4-12.14-22.44-12.14-34.18q-2.32.72-4.64,1.52c.17,11.23,2.38,25,10.84,33.66-6,1.09-12,2.39-17.73,3.83-12.89-2.17-20.67-13.49-24.94-22.68q-2,1.18-4.06,2.39c3.82,8.18,10.26,17.87,20.46,22.57-5,1.42-9.89,2.93-14.58,4.51-16.75-4.78-23.19-10.42-25.67-14q-1.91,1.38-3.78,2.77c2.79,4,8.86,9.2,22,13.79a462.19,462.19,0,0,0-57,24.89l-8.59,5.28,12.21-1.16c.57-.36,53.87-32.36,117.3-39.77-16.71,13.83-23.79,42.88-27.87,59.65-.68,2.79-1.41,5.78-2.06,8.07l4.58.72c.55-2,1.17-4.49,1.93-7.64,4.54-18.64,12.95-53.12,33.95-61.78,3.38-.23,20.35-.91,24.46-1-15.92,14.21-28,53.28-33.45,73.7q2.32.2,4.65.38c7.26-26.9,21.92-69.52,38-74.28C614.39,1425.09,679.17,1426.9,679.17,1426.9Z"/><path class="cls-12" d="M2558.79,450.46H2214.42c-46.64,0-84.44,39.13-84.44,87.39V1287.1c0,48.26,37.8,87.39,84.44,87.39h344.37c46.64,0,84.44-39.13,84.44-87.39V537.85C2643.23,489.59,2605.42,450.46,2558.79,450.46Z"/><path class="cls-13" d="M2214.42,1350.81c-33.95,0-61.57-28.07-61.57-62.57V552.55c0-34.5,27.62-62.57,61.57-62.57h344.37c33.95,0,61.57,28.07,61.57,62.57v735.7c0,34.5-27.62,62.57-61.57,62.57Z"/><path class="cls-2" d="M2620.35,564.82V552.55c0-34.5-27.62-62.57-61.57-62.57H2214.42c-33.95,0-61.57,28.07-61.57,62.57v12.27Z"/><path class="cls-2" d="M2558.79,490h-44.2c27.59,0,50,28.07,50,62.57v12.27h55.74V552.55C2620.35,518.05,2592.74,490,2558.79,490Z"/><path class="cls-7" d="M2514.59,490h-57.43c6.88,0,12.48,28.07,12.48,62.57v12.27h95V552.55C2564.62,518.05,2542.17,490,2514.59,490Z"/><path class="cls-2" d="M2304.71,490h-70c-27.59,0-50,28.07-50,62.57v12.27h95V552.55C2279.7,518.05,2290.92,490,2304.71,490Z"/><path class="cls-7" d="M2387.36,490h-82.65c-13.79,0-25,28.07-25,62.57v12.27h95.18V552.55C2374.88,518.05,2380.48,490,2387.36,490Z"/><path class="cls-2" d="M2457.16,490h-69.8c-6.88,0-12.48,28.07-12.48,62.57v12.27h94.77V552.55C2469.64,518.05,2464,490,2457.16,490Z"/><rect class="cls-14" x="2207.9" y="456.44" width="353.62" height="27.62" rx="7.09" ry="7.09"/><ellipse class="cls-15" cx="2541.27" cy="470.5" rx="10.84" ry="11.22"/><rect class="cls-15" x="2298.56" y="465.69" width="201.24" height="9.62" rx="2.47" ry="2.47"/><rect class="cls-1" x="2189.35" y="568.9" width="395.05" height="758.04"/><rect class="cls-16" x="2233.95" y="759.82" width="337.28" height="515.34"/><ellipse class="cls-14" cx="2544.47" cy="703.48" rx="6.46" ry="6.68"/><ellipse class="cls-14" cx="2544.47" cy="703.48" rx="3.49" ry="3.61"/><ellipse class="cls-14" cx="2516.39" cy="703.48" rx="6.46" ry="6.68"/><ellipse class="cls-14" cx="2516.39" cy="703.48" rx="3.49" ry="3.61"/><path class="cls-14" d="M2512.38,685.79l-12.05-21.55a3,3,0,0,1,.14-3.22,3.68,3.68,0,0,1,3.09-1.58h47.87a1.12,1.12,0,1,1,0,2.22h-47.87a1.18,1.18,0,0,0-1,.51,1,1,0,0,0,0,1.05l12.05,21.55a1.2,1.2,0,0,0,1.05.59h31.32l7.93-28.81a7.73,7.73,0,0,1,7.36-5.75H2571a1.26,1.26,0,0,1,0,2.52h-8.83a5.27,5.27,0,0,0-5,3.92l-10.38,37.7h-34a1.26,1.26,0,0,1,0-2.52H2545l1.33-4.83H2515.6A3.66,3.66,0,0,1,2512.38,685.79Z"/><ellipse class="cls-2" cx="2450.83" cy="679.18" rx="23.48" ry="24.3"/><path class="cls-2" d="M2152.85,611.23c18.55-6.69,31.87-24.93,31.87-46.41h-31.87Z"/><path class="cls-2" d="M2232.21,614c26.23,0,47.49-22,47.49-49.14h-95C2184.72,592,2206,614,2232.21,614Z"/><path class="cls-7" d="M2327.18,614c26.23,0,47.49-22,47.49-49.14h-95C2279.7,592,2301,614,2327.18,614Z"/><path class="cls-2" d="M2422.16,614c26.23,0,47.49-22,47.49-49.14h-95C2374.67,592,2395.93,614,2422.16,614Z"/><path class="cls-7" d="M2517.13,614c26.23,0,47.49-22,47.49-49.14h-95C2469.64,592,2490.91,614,2517.13,614Z"/><path class="cls-2" d="M2620.35,613.21V564.82h-55.74c0,27.14,21.26,49.14,47.49,49.14A46.18,46.18,0,0,0,2620.35,613.21Z"/><rect class="cls-17" x="619.14" y="451.52" width="1401.51" height="983.22" rx="37.36" ry="37.36"/><rect class="cls-18" x="859.41" y="267.08" width="914.58" height="1338.6" rx="20.21" ry="20.21" transform="translate(2253.07 -380.31) rotate(90)"/><path class="cls-7" d="M1950.45,472.86H681.23c-20.51,0-37.19,17.46-37.19,38.93v88.62h1343.6V511.8C1987.64,490.33,1971,472.86,1950.45,472.86Z"/><rect class="cls-1" x="704.89" y="503.82" width="1104.1" height="65.63" rx="16.4" ry="16.4"/><rect x="1842.84" y="508.59" width="106.94" height="56.09" rx="14.02" ry="14.02"/><rect class="cls-1" x="730.64" y="679.34" width="1165.67" height="606.81" rx="29.18" ry="29.18"/><path class="cls-19" d="M1861.19,676.86H770.49c-30.44,0-55.13,26.93-55.13,60.15v24.19h1201V737C1916.31,703.79,1891.63,676.86,1861.19,676.86Z"/><rect class="cls-1" x="1582.74" y="695.25" width="56.44" height="46.33"/><path class="cls-1" d="M1716.38,703.62h-58.57a3.45,3.45,0,0,1,0-6.87h58.57a3.45,3.45,0,0,1,0,6.87Z"/><path class="cls-1" d="M1716.38,722.93h-58.57a3.45,3.45,0,0,1,0-6.87h58.57a3.45,3.45,0,0,1,0,6.87Z"/><path class="cls-1" d="M1716.38,742.23h-58.57a3.45,3.45,0,0,1,0-6.87h58.57a3.45,3.45,0,0,1,0,6.87Z"/><rect class="cls-20" x="882.59" y="809.25" width="229.79" height="451"/><rect class="cls-21" x="1211.88" y="809.25" width="229.79" height="437.85"/><rect class="cls-22" x="1541.17" y="809.25" width="229.79" height="428.32"/><path class="cls-23" d="M1777.23,553.66l-7.71-13.76a14.71,14.71,0,0,0,5.14-11.32c0-7.88-5.85-14.26-13.07-14.26s-13.07,6.39-13.07,14.26,5.85,14.26,13.07,14.26a12.09,12.09,0,0,0,5.06-1.11l5.45,14.74a3.81,3.81,0,0,0,.21.46,2.75,2.75,0,0,0,4,1A3.31,3.31,0,0,0,1777.23,553.66Zm-25.57-25.08c0-6,4.45-10.83,9.93-10.83s9.93,4.86,9.93,10.83-4.46,10.83-9.93,10.83S1751.66,534.55,1751.66,528.58Z"/><ellipse class="cls-17" cx="1808" cy="746.16" rx="7.1" ry="7.75"/><ellipse class="cls-17" cx="1808" cy="746.16" rx="3.84" ry="4.19"/><ellipse class="cls-17" cx="1777.1" cy="746.16" rx="7.1" ry="7.75"/><ellipse class="cls-17" cx="1777.1" cy="746.16" rx="3.84" ry="4.19"/><path class="cls-17" d="M1772.69,725.64l-13.26-25a3.67,3.67,0,0,1,.15-3.74,4,4,0,0,1,3.4-1.83h52.66a1.29,1.29,0,1,1,0,2.58H1763a1.29,1.29,0,0,0-1.11.6,1.19,1.19,0,0,0,0,1.22l13.26,25a1.3,1.3,0,0,0,1.16.68h34.45l8.72-33.41a8.6,8.6,0,0,1,8.1-6.67h9.71a1.47,1.47,0,0,1,0,2.93h-9.71a5.86,5.86,0,0,0-5.52,4.55l-11.41,43.72h-37.38a1.47,1.47,0,0,1,0-2.93h35.36l1.46-5.61h-33.77A4,4,0,0,1,1772.69,725.64Z"/><path class="cls-17" d="M2347.48,995.52c-2.23.56-19.59,163-19.59,163s.61-3.25,15,2.45,44.78,8.39,44.78,8.39,8.65-73.36,13-77.9l18.83,77.9s60.69-13.78,62.58-13.78l-31.29-158.29S2407.2,1008,2399.58,1008,2355.8,993.44,2347.48,995.52Z"/><path class="cls-17" d="M2347.48,995.52c-2.23.56-19.59,163-19.59,163s.61-3.25,15,2.45c5.86,2.32,14.36,4.14,22.39,5.48,1.65-26.72,2.09-44.69-4.92-79.72-4.79-23.92,2.74-57.71,9.47-87C2360.19,996.91,2351.14,994.61,2347.48,995.52Z"/><path class="cls-17" d="M2450.82,997.31s-12.87,3.16-25.85,6c3.12,16.63,10.48,47.41,23.09,53.31,7,3.26,11.9,4.23,15.33,4.22Z"/><path class="cls-17" d="M2472.16,1088.75a117.35,117.35,0,0,1,4.94,11.32c3.61,9.69,4.12,39.27,2.53,43s-23.26,5.68-29.65,3.25c-4-1.51-4.92-35.9-5.15-52.38-.07-4.88,3.51-6.08,8.2-6.53C2465.66,1086.19,2469.95,1084.33,2472.16,1088.75Z"/><path class="cls-17" d="M2458.12,1141.17c-4.35-1.66-5-39-5.15-52.68,0,0-8.2-.06-8.16,4,.2,15.83,1.09,52.23,5.17,53.79,6.39,2.43,28.05.47,29.65-3.25a8.53,8.53,0,0,0,.43-2C2472.71,1142.48,2462.24,1142.74,2458.12,1141.17Z"/><path class="cls-17" d="M2481.49,1107.46c-.53-3.79-.35-6.19-1-8.49-3.34-11.71-12.63-15.48-12.63-15.48l-17.33,1.26a6.42,6.42,0,0,0-5.74,6.53c0,4.5.14,11.06.4,18.11Z"/><path class="cls-17" d="M2336.49,1155.64s-8.61-.67-8.61,2.9,46.15,12.17,59.78,10.84C2387.66,1169.38,2344.46,1155.64,2336.49,1155.64Z"/><path class="cls-17" d="M2438.58,1165.07c-6.61-16.7-14-37.22-18-51.64-3-10.7-16.24-43.14-19.84-21.95l18.83,77.9S2427.93,1167.47,2438.58,1165.07Z"/><path class="cls-17" d="M2436.61,1006.81s16.4,40.49,24.67,43.42h2.46l3.89,32.09-20.9,2.91L2425,1009.71Z"/><path class="cls-17" d="M2436.61,1006.81c7.43,15.83,18.28,40.28,24.7,43.32h0l2.46.11-2.47.11h0C2452.7,1047,2439.76,1015.63,2436.61,1006.81Z"/><path class="cls-17" d="M2347.48,995.52c-.79.2-3.48,20.69-6.62,47.09,8.38,2.42,17.48,3.84,19.36-.65,2.58-6.16,5.32-29.73,6.71-43C2358.41,996.48,2350.77,994.7,2347.48,995.52Z"/><path class="cls-17" d="M2361.47,1006.81s-21.53,39.44-25.41,39.44l.35,34.81,23.95,7.43,11-79Z"/><path class="cls-24" d="M2353.55,1020.86c-6.56,11.33-15.17,25.39-17.48,25.39l.35,34.81,20.14,2.47C2354.58,1065.1,2353.8,1041.46,2353.55,1020.86Z"/><path class="cls-17" d="M2361.47,1006.81c-5.32,11-21.43,39.24-25.41,39.44,2.64-.42,12.8-18.47,19.3-29.33Z"/><path class="cls-17" d="M2336.41,1081.06a115.72,115.72,0,0,0-8.52,16.88c-3.88,9.58-1.49,39.24,0,43s19.44,6.42,25.83,4c3.94-1.48,6-39.43,6.63-54.62a6.64,6.64,0,0,0-5.69-7Z"/><path class="cls-17" d="M2353.24,1083.19c-.65,15-2.68,53.42-6.65,54.91-4.16,1.57-13.22,1-19.45-.65a18.88,18.88,0,0,0,.74,3.48c1.49,3.76,19.44,6.42,25.83,4,3.94-1.48,6-39.49,6.63-54.66a6.6,6.6,0,0,0-5.65-6.91Z"/><path class="cls-17" d="M2346.31,987.45l-.48,16.32s46.54,10.6,60.79,7.86V998.73S2366.86,998.08,2346.31,987.45Z"/><path class="cls-17" d="M2396.35,1006.8h0a7.9,7.9,0,0,0,8.89,8l47.67-6.94-.87-18.18s-12.76,5.64-48.8,9.1A7.9,7.9,0,0,0,2396.35,1006.8Z"/><path class="cls-17" d="M2396.35,1017.8c1.64,25.62-.1,52.62,2.67,58.71,2,3.89,6.78,5,11,4.55-6.74,2.25-12.6-1.06-13.76-5.79-2.53-8-2-30.24-1.55-39.17C2395,1030,2395.51,1023.89,2396.35,1017.8Z"/><ellipse class="cls-17" cx="2404.05" cy="1006.09" rx="3.35" ry="3.47"/><polygon class="cls-17" points="2367.7 1011.46 2361.85 1010.26 2365.29 992.13 2371.13 993.44 2367.7 1011.46"/><polygon class="cls-17" points="2423.55 1015.51 2419.44 995.32 2425.36 994.41 2429.39 1014.24 2423.55 1015.51"/><path class="cls-17" d="M2328.87,1101.67c.61,2.67,1.06,6.81-.55,9.44-1,1.63-2.72,2.54-5.24,2.78l.36,4.1c3.78-.36,6.55-1.93,8.23-4.67,2.24-3.64,1.87-8.48,1.26-11.65Z"/><rect class="cls-17" x="2327.93" y="1107.46" width="7.08" height="2.06"/><path class="cls-17" d="M2467.85,1104.94l4.9-.87c.39,2.32,2.1,8.74,5.31,10.6a3.91,3.91,0,0,0,3.75.05l.29,5.3C2473.5,1123.55,2469.41,1114.33,2467.85,1104.94Z"/><rect class="cls-17" x="2467.2" y="1111.19" width="10.19" height="1.63"/><path class="cls-17" d="M2359.46,1107.17c.39-6.7.73-13.84.93-18.37.12-2.63-1.75-5.3-4.28-5.61l-19.7-2.55s-8.05,1-10.75,17.29c-.27,1.64-.45,3.59-.78,6Z"/><polygon class="cls-7" points="875.72 775.53 864.76 781.07 870.09 792.41 857.88 790.94 858.11 803.64 847.01 798.13 844.08 810.49 834.37 802.65 829.26 814.24 820.97 804.81 814.15 815.42 807.34 804.81 799.05 814.24 793.94 802.65 784.23 810.49 781.3 798.13 770.19 803.63 770.42 790.94 758.21 792.41 763.54 781.07 752.59 775.53 763.54 770 758.21 758.66 770.43 760.12 770.2 747.43 781.3 752.93 784.23 740.58 793.94 748.42 799.05 736.83 807.34 746.26 814.15 735.64 820.97 746.26 829.25 736.83 834.37 748.42 844.08 740.58 847.01 752.94 858.12 747.43 857.88 760.13 870.1 758.66 864.76 770 875.72 775.53"/><path class="cls-1" d="M793.32,766.14l-2.86,2.61c-2.72-3.91-5.83-1.67-4.45.2,2.32,3.11,7.66,5.1,7.66,9.9,0,6.5-9.17,8.76-12.75,1.4l3.25-2c2.35,4.48,5.72,2.64,5.72.8,0-2.93-8-5.88-8-11C781.88,763.53,788,759.8,793.32,766.14Z"/><path class="cls-1" d="M803.54,763.29h3.92l7.8,21h-4L809.66,780h-8.27l-1.65,4.32h-4Zm2,5.56-2.72,7.21h5.42Z"/><path class="cls-1" d="M818.25,763.29h3.86v17.18h5.62v3.81h-9.49Z"/><path class="cls-1" d="M830.68,763.29h11.07v3.91h-7.24V771h7.24v3.84h-7.24v5.52h7.24v3.92H830.68Z"/><path class="cls-25" d="M997.12,911.44l5-7s4.5,17.17,19.41,20.06,25.55-20.06,25.55-20.06l5.3,15-19.33,39.85-21.36-2.52L997.12,912.9Z"/><path class="cls-25" d="M1074.08,1093.78c-9.09-62.8-7.17-66.28-14.76-83.14-1.19-2.65-5.3-12.11-7-16.34-6-14.79,7.87-46.35,7.87-46.35l-3-24.41c-.55-4.5-.1-7.08.1-14.78l-10.22-4.33c.44,2.46.45,5.06,1.07,9.58a22.58,22.58,0,0,1-5.38,18.19c-6.5,7.17-16.52,11.57-24.37,8.55s-16.16-11.53-16.45-20.45a76.26,76.26,0,0,1,.18-15.87l-10.24,3.73c1,6.85,2.26,10.46,1.94,16.58l-1.44,27.16s13.63,17,9.41,44.06c-1.14,7.28-6.78,14.65-10.6,26.94-8.24,26.56-14.31,66.29-21,100.72,27.83,15.74,82.44,20.82,111.63-1.26C1078,1115.09,1075.65,1104.63,1074.08,1093.78Z"/><path class="cls-2" d="M1074.08,1093.78c-9.09-62.8-7.17-66.28-14.76-83.14-1.19-2.65-5.3-12.11-7-16.34-6-14.79,7.87-46.35,7.87-46.35l-3-24.41c-.55-4.5-.1-7.08.1-14.78l-4.58-1.94,2.39,38.6s-11.23,34.66-11.23,44.62,12.29,25.94,14.9,49.78c2.13,19.47,5.45,72.6,6.59,91.4a64.47,64.47,0,0,0,16.49-8.86C1078,1115.09,1075.65,1104.63,1074.08,1093.78Z"/><path class="cls-25" d="M994.94,1033.69c5.83-28.58,13.37-31.83,13.37-45.9s-8.64-35.23-8.64-35.23-2.55-8.78-2.55-23.23a100.42,100.42,0,0,0-2.95-22l-2.29.83c1,6.85,2.26,10.46,1.94,16.58l-1.44,27.16s13.63,17,9.41,44.06c-1.14,7.28-6.78,14.65-10.6,26.94-8.24,26.56-14.31,66.29-21,100.72a85.44,85.44,0,0,0,14.26,6.35C985.75,1112.87,990,1057.7,994.94,1033.69Z"/><path class="cls-25" d="M1048.49,906.95a.34.34,0,0,1-.34-.34c0-.33,0-.65,0-.94a.34.34,0,1,1,.67,0c0,.29,0,.59,0,.92a.34.34,0,0,1-.33.36Z"/><path class="cls-25" d="M1023.88,945.42h-.15c-.57,0-1.14,0-1.69-.07a.35.35,0,0,1,.06-.69c.53,0,1.08.07,1.63.07h.15a.35.35,0,0,1,0,.7Zm1.81-.1a.34.34,0,0,1-.34-.32.35.35,0,0,1,.3-.38c.58-.06,1.18-.14,1.77-.25a.34.34,0,0,1,.39.28.35.35,0,0,1-.27.4c-.61.11-1.23.19-1.82.25Zm-5.42-.24h-.07a16.37,16.37,0,0,1-1.79-.47.35.35,0,0,1-.22-.44.34.34,0,0,1,.42-.23,15.5,15.5,0,0,0,1.72.45.35.35,0,0,1,.27.41A.34.34,0,0,1,1020.26,945.09Zm9-.41a.34.34,0,0,1-.33-.26.35.35,0,0,1,.25-.42c.56-.15,1.15-.32,1.72-.51a.33.33,0,0,1,.42.22.35.35,0,0,1-.22.44c-.59.2-1.19.37-1.77.52ZM1016.8,944l-.13,0c-.56-.24-1.12-.5-1.68-.78a.35.35,0,0,1-.16-.46.33.33,0,0,1,.45-.16c.54.27,1.09.53,1.64.76a.35.35,0,0,1,.19.45A.34.34,0,0,1,1016.8,944Zm15.91-.46a.34.34,0,0,1-.31-.22.35.35,0,0,1,.19-.45q.83-.34,1.65-.73a.33.33,0,0,1,.45.17.35.35,0,0,1-.16.46q-.84.4-1.69.75Zm-19.18-1.18a.32.32,0,0,1-.17,0c-.53-.31-1.06-.64-1.57-1a.36.36,0,0,1-.1-.48.33.33,0,0,1,.47-.1c.51.34,1,.66,1.54,1a.36.36,0,0,1,.13.48A.34.34,0,0,1,1013.53,942.35ZM1036,942a.33.33,0,0,1-.3-.19.35.35,0,0,1,.14-.47q.79-.44,1.56-.92a.33.33,0,0,1,.46.12.35.35,0,0,1-.11.48c-.53.33-1.06.64-1.59.94A.35.35,0,0,1,1036,942Zm-25.53-1.63a.33.33,0,0,1-.2-.07c-.5-.37-1-.76-1.45-1.16a.36.36,0,0,1,0-.49.33.33,0,0,1,.48,0c.46.39.94.77,1.42,1.14a.36.36,0,0,1,.07.49A.34.34,0,0,1,1010.48,940.32Zm28.63-.32a.33.33,0,0,1-.28-.15.36.36,0,0,1,.09-.49c.5-.35,1-.71,1.46-1.09a.33.33,0,0,1,.47.06.36.36,0,0,1-.06.49c-.49.38-1,.75-1.49,1.11A.33.33,0,0,1,1039.11,940Zm-31.43-2.06a.33.33,0,0,1-.23-.09c-.45-.43-.89-.88-1.31-1.33a.36.36,0,0,1,0-.49.33.33,0,0,1,.48,0c.41.44.84.88,1.28,1.3a.36.36,0,0,1,0,.49A.34.34,0,0,1,1007.67,937.94Zm34.31-.22a.32.32,0,0,1-.25-.12.35.35,0,0,1,0-.49c.45-.4.9-.82,1.33-1.25a.33.33,0,0,1,.48,0,.36.36,0,0,1,0,.49q-.66.65-1.36,1.27A.33.33,0,0,1,1042,937.73Zm-36.82-2.5a.33.33,0,0,1-.26-.13c-.4-.49-.78-1-1.13-1.5a.36.36,0,0,1,.08-.49.33.33,0,0,1,.47.08c.34.49.71,1,1.1,1.46a.36.36,0,0,1,0,.49A.32.32,0,0,1,1005.17,935.23Zm39.44-.1a.32.32,0,0,1-.23-.09.36.36,0,0,1,0-.49c.4-.45.78-.93,1.13-1.42a.33.33,0,0,1,.47-.07.35.35,0,0,1,.07.49c-.36.51-.76,1-1.17,1.47A.32.32,0,0,1,1044.6,935.12Zm-41.55-2.94a.34.34,0,0,1-.29-.17c-.32-.56-.62-1.12-.89-1.68a.35.35,0,0,1,.16-.46.33.33,0,0,1,.45.16c.25.54.54,1.08.86,1.62a.36.36,0,0,1-.11.48A.33.33,0,0,1,1003.05,932.18Zm43.73-.05a.32.32,0,0,1-.18-.05.36.36,0,0,1-.11-.48c.31-.52.6-1.06.87-1.61a.33.33,0,0,1,.45-.16.36.36,0,0,1,.15.47c-.28.57-.58,1.13-.9,1.66A.34.34,0,0,1,1046.78,932.13Zm-45.32-3.31a.34.34,0,0,1-.32-.23,17.49,17.49,0,0,1-.55-1.83.35.35,0,0,1,.24-.42.34.34,0,0,1,.41.25,16.69,16.69,0,0,0,.53,1.75.35.35,0,0,1-.2.45Zm46.95,0-.12,0a.35.35,0,0,1-.19-.45c.22-.57.41-1.16.58-1.75a.34.34,0,0,1,.42-.24.35.35,0,0,1,.23.43c-.17.61-.38,1.22-.6,1.8A.34.34,0,0,1,1048.4,928.77Zm1-3.6h-.07a.35.35,0,0,1-.26-.41c.12-.6.21-1.22.28-1.83a.34.34,0,0,1,.37-.31.35.35,0,0,1,.3.39c-.07.63-.16,1.26-.28,1.89A.34.34,0,0,1,1049.43,925.18Zm-48.85,0a.34.34,0,0,1-.33-.31c0-.4-.08-.8-.09-1.2l-.06-.68a.35.35,0,0,1,.31-.38.34.34,0,0,1,.36.32l.06.69c0,.4,0,.79.09,1.17a.35.35,0,0,1-.29.39Zm49.25-3.73h0a.34.34,0,0,1-.33-.36c0-.16,0-.33,0-.5q0-.67,0-1.35a.34.34,0,0,1,.31-.37.33.33,0,0,1,.36.33c0,.47,0,.93,0,1.39,0,.17,0,.34,0,.51A.34.34,0,0,1,1049.83,921.45Zm-49.54,0a.34.34,0,0,1-.33-.33c0-.63-.08-1.26-.11-1.88a.34.34,0,0,1,.32-.37.34.34,0,0,1,.35.33c0,.62.07,1.24.11,1.87a.35.35,0,0,1-.31.37Zm49.31-3.73a.34.34,0,0,1-.33-.3c-.09-.62-.18-1.24-.26-1.87a.34.34,0,1,1,.67-.09c.08.62.17,1.24.26,1.85a.35.35,0,0,1-.28.4Zm-49.5,0a.34.34,0,0,1-.34-.33c0-.64,0-1.27-.06-1.88a.34.34,0,0,1,.33-.36.33.33,0,0,1,.34.34c0,.61,0,1.24.06,1.87a.34.34,0,0,1-.33.36Zm49-3.7a.34.34,0,0,1-.33-.3c-.07-.63-.14-1.26-.21-1.87a.34.34,0,1,1,.67-.07c.06.61.13,1.23.21,1.86a.35.35,0,0,1-.29.39Zm-49.1-.06a.34.34,0,0,1-.34-.35c0-.55,0-1.08,0-1.6v-.29a.34.34,0,0,1,.34-.35h0a.34.34,0,0,1,.33.35V912c0,.51,0,1,0,1.59a.34.34,0,0,1-.33.35Zm48.71-3.68a.34.34,0,0,1-.33-.32c-.06-.66-.11-1.29-.14-1.88a.34.34,0,1,1,.67,0c0,.59.09,1.21.14,1.87a.35.35,0,0,1-.31.38Zm-48.7-.08h0a.34.34,0,0,1-.33-.35c0-.69,0-1.32,0-1.88a.33.33,0,0,1,.35-.34.35.35,0,0,1,.33.36c0,.56,0,1.19,0,1.87A.34.34,0,0,1,1000,910.17Z"/><path class="cls-25" d="M1000.12,907.19h0a.34.34,0,0,1-.32-.36c0-.6,0-.93,0-.93a.34.34,0,0,1,.35-.33.34.34,0,0,1,.32.37s0,.33,0,.92A.34.34,0,0,1,1000.12,907.19Z"/><path class="cls-25" d="M1021.17,1135.28h0l-1.8,0a.34.34,0,0,1-.33-.36.33.33,0,0,1,.34-.34l1.79,0a.35.35,0,0,1,0,.7Zm1.8,0a.35.35,0,0,1,0-.7l1.79,0a.35.35,0,0,1,0,.7l-1.8,0Zm-5.39-.07h0l-1.8-.07a.35.35,0,0,1-.32-.36.35.35,0,0,1,.35-.33l1.79.07a.35.35,0,0,1,0,.7Zm9,0a.35.35,0,0,1,0-.7l1.79-.07a.34.34,0,0,1,.35.33.34.34,0,0,1-.32.36l-1.8.07Zm3.59-.17a.35.35,0,0,1,0-.7l1.79-.12a.34.34,0,0,1,.36.32.35.35,0,0,1-.31.37l-1.8.12Zm-16.16,0h0l-.56,0-1.24-.1a.34.34,0,0,1-.3-.38.34.34,0,0,1,.36-.32l1.23.1.56,0a.35.35,0,0,1,0,.7Zm19.74-.26a.34.34,0,0,1-.34-.32.35.35,0,0,1,.31-.38l1.78-.16a.35.35,0,0,1,.07.69l-1.79.17Zm-23.32-.07h0l-1.79-.24a.35.35,0,0,1-.28-.39.33.33,0,0,1,.38-.3l1.78.24a.35.35,0,0,1,.3.39A.35.35,0,0,1,1010.42,1134.7Zm26.89-.29a.34.34,0,0,1-.33-.31.35.35,0,0,1,.3-.38l1.78-.22a.34.34,0,0,1,.37.3.35.35,0,0,1-.29.39l-1.79.22Zm-30.45-.24h-.06l-1.78-.33a.35.35,0,0,1-.27-.41.33.33,0,0,1,.39-.28l1.76.33a.35.35,0,0,1,.28.4A.34.34,0,0,1,1006.86,1134.18Zm34-.22a.34.34,0,0,1-.33-.3.35.35,0,0,1,.29-.39l1.77-.27a.34.34,0,0,1,.38.29.35.35,0,0,1-.28.4l-1.78.27Zm-37.54-.47h-.07l-1.77-.4a.35.35,0,0,1-.25-.42.34.34,0,0,1,.4-.26l1.75.4a.35.35,0,0,1,.26.41A.34.34,0,0,1,1003.33,1133.49Zm41.09-.1a.34.34,0,0,1-.33-.29.35.35,0,0,1,.28-.4l1.77-.32a.34.34,0,0,1,.39.28.35.35,0,0,1-.27.41l-1.78.32Zm3.54-.67a.34.34,0,0,1-.33-.28.35.35,0,0,1,.27-.41l1.75-.38a.34.34,0,0,1,.4.27.35.35,0,0,1-.26.42l-1.77.38Zm-48.15-.05h-.08l-1.75-.45a.35.35,0,0,1-.24-.42.33.33,0,0,1,.41-.25l1.74.45a.35.35,0,0,1,.25.42A.34.34,0,0,1,999.81,1132.66Zm51.66-.74a.34.34,0,0,1-.33-.27.35.35,0,0,1,.25-.42l1.74-.44a.34.34,0,0,1,.41.25.35.35,0,0,1-.24.42l-1.76.45Zm-55.14-.19h-.09l-1.74-.51a.35.35,0,0,1-.23-.43.33.33,0,0,1,.42-.24l1.73.5a.35.35,0,0,1,.24.43A.34.34,0,0,1,996.34,1131.73ZM1055,1131a.34.34,0,0,1-.33-.26.35.35,0,0,1,.24-.43l1.72-.51a.33.33,0,0,1,.42.24.35.35,0,0,1-.23.43l-1.73.51Zm-62.08-.3-.1,0-1.72-.55a.35.35,0,0,1-.22-.44.33.33,0,0,1,.42-.23l1.71.55a.35.35,0,0,1,.22.43A.33.33,0,0,1,992.88,1130.7Zm65.52-.76a.34.34,0,0,1-.32-.24.35.35,0,0,1,.22-.44l1.7-.59a.34.34,0,0,1,.43.22.35.35,0,0,1-.21.44l-1.71.59Zm-69-.36-.1,0-1.71-.59a.35.35,0,0,1-.21-.44.34.34,0,0,1,.43-.22l1.7.59a.35.35,0,0,1,.22.44A.34.34,0,0,1,989.45,1129.58Zm72.35-.86a.34.34,0,0,1-.32-.23.35.35,0,0,1,.2-.45l1.67-.67a.34.34,0,0,1,.44.19.35.35,0,0,1-.19.45l-1.68.68Zm-75.75-.33-.11,0-1.7-.62a.35.35,0,0,1-.2-.45.33.33,0,0,1,.43-.21l1.69.62a.35.35,0,0,1,.21.44A.34.34,0,0,1,986,1128.39Zm79.09-1.06a.34.34,0,0,1-.31-.21.35.35,0,0,1,.18-.46c.55-.25,1.09-.5,1.63-.76a.33.33,0,0,1,.45.17.36.36,0,0,1-.16.46q-.81.4-1.64.77Zm-82.47-.2-.12,0-1.69-.65a.36.36,0,0,1-.19-.45.33.33,0,0,1,.44-.2l1.68.65a.35.35,0,0,1,.2.45A.34.34,0,0,1,982.66,1127.13Zm-3.36-1.33-.12,0-1.67-.69a.35.35,0,0,1-.19-.45.33.33,0,0,1,.44-.19l1.67.68a.35.35,0,0,1,.19.45A.34.34,0,0,1,979.3,1125.8Zm89.08-.06a.34.34,0,0,1-.3-.19.35.35,0,0,1,.15-.47q.8-.42,1.58-.87a.33.33,0,0,1,.46.14.35.35,0,0,1-.13.47c-.52.3-1.06.59-1.6.88A.31.31,0,0,1,1068.38,1125.74ZM976,1124.41a.32.32,0,0,1-.13,0l-1.66-.72a.35.35,0,0,1-.18-.46.33.33,0,0,1,.44-.18l1.66.72a.35.35,0,0,1,.18.46A.34.34,0,0,1,976,1124.41Zm95.56-.48a.33.33,0,0,1-.29-.17.35.35,0,0,1,.11-.48q.77-.48,1.51-1a.33.33,0,0,1,.47.1.35.35,0,0,1-.1.48q-.75.51-1.53,1A.33.33,0,0,1,1071.52,1123.94Zm-98.87-1a.29.29,0,0,1-.13,0c-1.07-.48-1.66-.77-1.66-.77a.36.36,0,0,1-.16-.46.33.33,0,0,1,.45-.17s.59.28,1.64.76a.35.35,0,0,1,.17.46A.34.34,0,0,1,972.65,1123Zm101.87-1.06a.34.34,0,0,1-.27-.14.36.36,0,0,1,.08-.49c.45-.34.89-.68,1.32-1a.33.33,0,0,1,.47.06.36.36,0,0,1-.06.49q-.65.53-1.34,1A.33.33,0,0,1,1074.52,1121.89Zm2.62-1.94a.33.33,0,0,1-.28-.14.36.36,0,0,1,.07-.49q.68-.51,1.32-1a.33.33,0,0,1,.47.06.36.36,0,0,1-.05.49c-.44.36-.88.71-1.34,1A.32.32,0,0,1,1077.14,1120Z"/><path class="cls-2" d="M2372,858.11l-11.88-51.43,5.6-2.9s34.61,7.75,62.63-3.08l12,4.48-11.12,55.39Z"/><path class="cls-2" d="M2435,803.93l5.22,1.58.07-.33-12-4.48c-28,10.83-62.63,3.08-62.63,3.08l-5.6,2.9.18.77C2370.29,808.93,2405.59,813.13,2435,803.93Z"/><path class="cls-2" d="M2332.32,872l-20.4.89s-2.18,3.88,3.68,9.94,32.63,19.57,33.2,16.91-2-12.14-4.29-14.48S2332.32,872,2332.32,872Z"/><path class="cls-2" d="M2311.91,872.91s32.75,14.19,36.88,26.85l4.51-21,2.67-42.31-20.81-16.81Z"/><path class="cls-2" d="M2452.54,898.46a53.54,53.54,0,0,1,2.28-12.4c2-6.44,20.31-18.08,24.53-19.06s8.34-1.77,9.48,1.7S2458.08,900.81,2452.54,898.46Z"/><path class="cls-2" d="M2465.11,814.48l23.72,54.23s-33.29,11.12-36.29,29.75l-3.65-18.94V845.28Z"/><path class="cls-7" d="M2335.16,819.61s18.38,44.32,18.38,55.44S2346.6,977.8,2341,1003.89c0,0,75.38,16.36,117,2.24,0,0-13.59-84.64-9.09-126.61.25-2.3,16.22-65,16.22-65l-36.5-13.68S2420.3,833,2395.36,833c-19.93,0-30.43-28.85-30.43-28.85Z"/><path class="cls-26" d="M2360.13,944.64c3.59-15.34,38.13-9.4,12.82-35.59-20.92-21.65-22.36-78.41-22.23-97.49l-15.55,8.05s18.38,44.32,18.38,55.44S2346.6,977.8,2341,1003.89a412.93,412.93,0,0,0,56.49,7.47c1-7.29.41-15.89-4.8-23.24C2381,971.63,2356.54,960,2360.13,944.64Z"/><path class="cls-2" d="M2395.75,837.41c18.33,0,31-23.06,36.41-35.28l-3.8-1.43s-8.47,31-33.41,31c-19.93,0-29.23-28-29.23-28l-4.21,2.18C2367.91,817.22,2381.38,837.41,2395.75,837.41Z"/><polygon class="cls-17" points="1613.95 943.13 1619.38 943.53 1620.42 950.02 1610.38 948.67 1613.95 943.13"/><path class="cls-17" d="M1702,949s.35-2.83,2.88-3.48l9.76,0,2.7,8.2-15.93-1.6Z"/><path class="cls-17" d="M1649,956.14s9.91-73.73,14.19-78.56,10.77-2.77,12.31,0c2.38,4.29,8.56,80.44,8.56,80.44h9.39s-8.67-77.63-17.43-84.27-16.79.42-19.29,7.65-16.9,71.76-16.9,71.76Z"/><path class="cls-17" d="M1609.34,991.85s-21.47,20-23,32.28l1.1,19.08s1.73-1.29,2.36-5.14c1.31-8,4.89-15.27,10.73-22.91,9.64-12.61,12.15-14.41,12.15-14.41Z"/><path class="cls-17" d="M1600.48,948.14l15.42,99s79.39,2,85.51-.7,22.83-74.83,20.4-92Z"/><path class="cls-27" d="M1701.41,1046.47c3.66-1.6,11.1-28,16-52.7-7.08,12.82-18.09,28.91-31,34.46-22.66,9.75-70.48,18.93-70.48,18.93S1695.29,1049.15,1701.41,1046.47Z"/><path class="cls-17" d="M1719.52,982c2-12,3-22.39,2.28-27.63l-121.32-6.28,4.86,31.24Z"/><path class="cls-17" d="M1652.29,945.95s-21.48,1-34,0-18.14,0-17.79,2.19,24.37,9.17,49.14,7.87,30.41,1.14,42,2.27,29.05.82,30.17-3.81C1722.28,952.51,1665.61,944.32,1652.29,945.95Z"/><path class="cls-17" d="M1634.77,956.12s9.78-71.1,15.33-76.84c4.82-5,12.29-3,13.87,0,1.7,3.26,9.06,76.9,9.06,76.9l10.55,1.32s-8.56-75.07-18.43-81.94-19.52.19-22.34,7.68-17.31,71.69-17.31,71.69Z"/><path class="cls-17" d="M1607.7,976.59h0l-1.53,0a.13.13,0,0,1,0-.26h0l1.53,0a.13.13,0,0,1,.12.14A.13.13,0,0,1,1607.7,976.59Z"/><path class="cls-17" d="M1714.27,979.58h0l-3.13-.09a.13.13,0,0,1-.12-.13.13.13,0,0,1,.13-.13h0l3.13.09a.13.13,0,0,1,.12.13A.13.13,0,0,1,1714.27,979.58Zm-6.27-.18h0l-3.14-.09a.13.13,0,0,1,0-.26l3.13.09a.13.13,0,0,1,.12.13A.13.13,0,0,1,1708,979.41Zm-6.27-.17h0l-3.13-.09a.13.13,0,0,1-.12-.13.13.13,0,0,1,.13-.13h0l3.14.09a.13.13,0,0,1,.12.13A.13.13,0,0,1,1701.73,979.23Zm-6.27-.18h0l-3.14-.09a.13.13,0,0,1-.12-.13.13.13,0,0,1,.13-.13h0l3.14.09a.13.13,0,0,1,0,.26Zm-6.27-.18h0l-3.14-.09a.13.13,0,0,1,0-.26h0l3.14.09a.13.13,0,0,1,0,.26Zm-6.27-.17h0l-3.14-.09a.13.13,0,0,1,0-.26h0l3.13.09a.13.13,0,0,1,.12.13A.13.13,0,0,1,1682.92,978.7Zm-6.27-.18h0l-3.14-.09a.13.13,0,0,1,0-.26h0l3.13.09a.13.13,0,0,1,.12.13A.13.13,0,0,1,1676.66,978.53Zm-6.27-.18h0l-3.14-.09a.13.13,0,0,1-.12-.13.13.13,0,0,1,.13-.13h0l3.13.09a.13.13,0,0,1,0,.26Zm-6.27-.18h0l-3.13-.09a.13.13,0,0,1,0-.26h0l3.14.09a.13.13,0,0,1,0,.26Zm-6.27-.18h0l-3.14-.09a.13.13,0,0,1-.12-.13.13.13,0,0,1,.13-.13h0l3.14.09a.13.13,0,0,1,0,.26Zm-6.27-.18h0l-3.14-.09a.13.13,0,0,1-.12-.13.13.13,0,0,1,.13-.13l3.14.09a.13.13,0,0,1,.12.13A.13.13,0,0,1,1651.58,977.83Zm-6.27-.18h0l-3.14-.09a.13.13,0,0,1,0-.26h0l3.13.09a.13.13,0,0,1,.13.13A.13.13,0,0,1,1645.31,977.65Zm-6.27-.18h0l-3.14-.09a.13.13,0,0,1-.12-.13.12.12,0,0,1,.13-.13l3.13.09a.13.13,0,0,1,.12.13A.13.13,0,0,1,1639,977.47Zm-6.27-.18h0l-3.13-.09a.13.13,0,0,1-.12-.13.13.13,0,0,1,.13-.13h0l3.14.09a.13.13,0,0,1,0,.26Zm-6.27-.18h0l-3.13-.09a.13.13,0,0,1,0-.26h0l3.14.09a.13.13,0,0,1,0,.26Zm-6.27-.18h0l-3.13-.09a.13.13,0,0,1-.12-.13.14.14,0,0,1,.13-.13l3.14.09a.13.13,0,0,1,0,.26Zm-6.27-.18h0l-3.14-.09a.13.13,0,0,1,0-.26h0l3.14.09a.13.13,0,0,1,0,.26Z"/><path class="cls-17" d="M1718.93,979.71h0l-1.53,0a.13.13,0,0,1-.12-.13.13.13,0,0,1,.13-.13h0l1.53,0a.13.13,0,0,1,.12.13A.13.13,0,0,1,1718.93,979.71Z"/><path class="cls-17" d="M1600.48,948.14c1.29,2.66,24.25,8,45.25,7.52,4.58-.09,7.64-.46,15.47-.55,21.13-.11,27,4,46.27,3.36,3.44-.1,13.34-.56,14.33-4-.53,2.18-4.47,3.17-6.6,3.6-14.63,2.92-34.18-.8-38.59-1.24-22.89-2.42-33.71,2.79-61.69-3.37C1613,953,1601,950.1,1600.48,948.14Z"/><path class="cls-17" d="M1711.42,968.69a5.09,5.09,0,0,1-5-5.21c.05-5.45.47-13.49.08-15.51-.47-2.45-1.62-2.4-1.62-2.4l9.67,0a2.11,2.11,0,0,1,2,1.44,43,43,0,0,1,1.88,8.56,64.9,64.9,0,0,1,.53,7.89,5.09,5.09,0,0,1-5,5.21Z"/><path class="cls-17" d="M1718,963.61h-.06a.26.26,0,0,1-.18-.32,5.94,5.94,0,0,0,.18-1.5.26.26,0,0,1,.25-.27h0a.26.26,0,0,1,.25.26,6.58,6.58,0,0,1-.19,1.63A.26.26,0,0,1,1718,963.61Z"/><path class="cls-17" d="M1714.3,967.23a.26.26,0,0,1,0-.52,3.51,3.51,0,0,0,2.22-1.13.25.25,0,0,1,.36,0,.27.27,0,0,1,0,.37,4,4,0,0,1-2.54,1.28Zm-2.7,0h0a4,4,0,0,1-2.54-1.29.27.27,0,0,1,0-.37.25.25,0,0,1,.36,0,3.49,3.49,0,0,0,2.22,1.13.26.26,0,0,1,.23.29A.26.26,0,0,1,1711.6,967.23Z"/><path class="cls-17" d="M1707.93,963.58a.26.26,0,0,1-.25-.2,6.62,6.62,0,0,1-.19-1.63.26.26,0,0,1,.25-.26.26.26,0,0,1,.25.27,6.16,6.16,0,0,0,.17,1.5.26.26,0,0,1-.19.32Z"/><path class="cls-17" d="M1622.65,957.62h-10.16a2.71,2.71,0,0,1,0-5.43h10.16a2.71,2.71,0,0,1,0,5.43Zm-10.16-4.37a1.66,1.66,0,0,0,0,3.32h10.16a1.66,1.66,0,0,0,0-3.32Z"/><path class="cls-17" d="M1653.74,967.11a6,6,0,0,1,5.26-5c7.44-.85,26.45-2.44,35.61,2,11.54,5.62-7.73,7.2-28,8.61C1655.26,973.52,1653.28,970.18,1653.74,967.11Z"/><path class="cls-17" d="M1622.65,964.12h-10.16a2.72,2.72,0,0,1,0-5.43h10.16a2.72,2.72,0,0,1,0,5.43Zm-10.16-4.37a1.66,1.66,0,0,0,0,3.32h10.16a1.66,1.66,0,0,0,0-3.32Z"/><rect class="cls-17" x="1615.29" y="956.88" width="4.59" height="2.87"/><path class="cls-17" d="M1612.16,962.49s3.66,65.27,3.6,71.86c0,2.69-1.1,13.52-1.1,13.52l5.18-.55s1.25-1.46,3.05-9.73.86-75.1.86-75.1Z"/><path class="cls-17" d="M1614,943.13l-.56,10.66h9.26v-9.3a1.34,1.34,0,0,0-1.32-1.36Z"/><path class="cls-17" d="M1623.12,1036.13s-4.07,10.38-20.53,5.84-16.3-17.84-16.3-17.84l1,18.16a4.44,4.44,0,0,0,2.63,3.86c5.53,2.39,18.74,7.82,23.77,7.27C1620.07,1052.72,1622.79,1040.38,1623.12,1036.13Z"/><ellipse class="cls-28" cx="1690.91" cy="1346.04" rx="10.5" ry="10.86"/><ellipse class="cls-14" cx="1735.63" cy="1346.04" rx="10.5" ry="10.86"/><ellipse class="cls-29" cx="1780.36" cy="1346.04" rx="10.5" ry="10.86"/><rect class="cls-1" x="920.15" y="1190.63" width="162.74" height="13.2"/><rect class="cls-1" x="1245.4" y="1190.63" width="162.74" height="13.2"/><rect class="cls-1" x="1574.69" y="1079.36" width="162.74" height="13.2"/><path class="cls-30" d="M2607.74,852.86s-5-46.42-16.75-46.42c-24.59,0-65.77,128.63-67.05,147.57-2.16,31.9,19,33.81,39.82,36.4,20.34,2.53,24.11-43.68,24.11-43.68Z"/><path class="cls-12" d="M2661,1517l2.9,16.48s-7.48,25.22-18.82,37-35.71,12.48-35.71,2.5,25.42-41,25.42-52.94S2661,1517,2661,1517Z"/><path class="cls-12" d="M2583.83,1520l4.34,30.46h-74.79s2.41-7.49,24.13-12,23.43-13,23.43-13l-2.2-19,19.79-3Z"/><polygon class="cls-17" points="2615.2 1171.28 2571.04 1331.89 2587.21 1525.5 2558.74 1525.5 2519.65 1320.76 2558.74 1086.3 2615.2 1171.28"/><path class="cls-17" d="M2558.74,1080.06l30.57,96.88s36,130.84,42.54,209.74,0,132.83,0,132.83l35.95,6s20.75-163.8,13-218.73,1.72-188.76,1.72-188.76l-14.75-38Z"/><polygon class="cls-2" points="2681.11 814.67 2651.06 804.07 2614.41 800.58 2590.98 806.44 2556.33 956.63 2557.5 1093.74 2682.55 1091.51 2648.98 1001.96 2681.11 814.67"/><path class="cls-31" d="M2634.86,964.48c-8.29,6-13.69,14.65-31.56,19.89a309.84,309.84,0,0,0,33.87,24.1c2.71-15,4.67-27.34,5-42.32C2641.77,966.32,2635.28,964.35,2634.86,964.48Z"/><path class="cls-32" d="M2703.19,843.05c-5.31-17.38-22.08-28.39-22.08-28.39-18-2.16-23,94.71-23,94.71l-7.17,54.24c-1.47,1.63-6.84,0-8.77.86-.33,15-5.7,30.87-8.41,45.85,17.84,10.71,37.71,14.86,44.84,7.49C2694.8,1001.07,2708.53,860.46,2703.19,843.05Z"/><path class="cls-33" d="M2550,911.76c-7.08-1.58-29.16,6.36-29.16,6.36S2515,926.55,2515,932c0,.92.49,1.38,1.3,1.27-1.52,1.14-2.26,2.09-1.65,2.72,2.93,3,26-8.45,27.37-7s-26.21,6.08-24,11.25c.93,2.16,11.53-1.27,18.2-3.67-5.8,2.34-14.29,6.13-14.29,8.43,0,3.51,24.05-1.89,29.31-1.89,2,0,5.16,2.16,8.8,4.52,1.62-.3,2.73.49,3.42.27a301.83,301.83,0,0,1,40.92,2.54C2579.39,934.9,2552,912.2,2550,911.76Zm-25,16.54c-1.84.94-3.64,1.88-5.24,2.77,1.55-1.53,2.8-4.89,5-6.49,4.48-3.28,11.24-5.12,12.25-4.07C2538.28,921.79,2531.51,925,2525.07,928.31Z"/><path class="cls-34" d="M2655.06,932.49c-1.21,6-1,24-3.77,28.47,0,0-3-2.18-4-1.12h0c-9.8,5.4-23.65,20.29-50.66,26.24-26.53,5.75-62.73,8.73-62.73-9.93s18.12-28.84,29.61-28.84a377.41,377.41,0,0,1,40.92,3.08h0C2627.37,953.37,2652.67,930.6,2655.06,932.49Z"/><path class="cls-33" d="M2591.35,677.07s-16.11,21.9-18.53,36.76c-2.49,15.29-5.5,39.73-5.5,39.73h6.55s5.46,13.57,5.46,22.61,13.83,3.39,21.85,3.39,25.85-7.16,32.77-33.16S2653.61,674.05,2591.35,677.07Z"/><path class="cls-33" d="M2651.06,804.07s-44.43,20.62-44.43,13.56c0-2.15,0-17.36-1.41-30.53-.64-6-1.27-11.41-1.61-14.69l13.67-35.54v0l2.64-6.82Z"/><path class="cls-35" d="M2569.5,661.24c-.74,1.3-13.39,27.9,8.41,38.07s27.22-4.47,33,4.57-5.05,23.68-.32,32l7.26,1.44s1.48-4.46,4.39-4.46,3.74,22.83,8.42,22.83,13.79-19.44,18.16-28.48,13.47-39.57-3.28-47.48-24-1.88-24-9.42-7.28.38-7.28.38-4-5.65-1.46-12.06-17.84-8.67-22.58,4.15S2577.51,647.3,2569.5,661.24Z"/><path class="cls-33" d="M2616.06,724.58s-.36,14.88,3.11,14.88,11.06-8.42,9.77-17.38S2617.63,714.19,2616.06,724.58Z"/><path class="cls-31" d="M2618.47,723s-1.73,5.91.87,8.6,7.61-3.76,4.84-8.6S2619,719.56,2618.47,723Z"/><path class="cls-36" d="M2580.71,718.84l-.56,3.59s6.09-.75,9.43,2.7,3.8,3.85,3.8,3.85S2591.61,720.85,2580.71,718.84Z"/><ellipse class="cls-12" cx="2584.58" cy="729.93" rx="2.68" ry="3.29"/><path class="cls-36" d="M2582.1,763.12a11.08,11.08,0,0,0,5.84-1.51,5.86,5.86,0,0,0,1.93-2.07,6.54,6.54,0,0,0,.73-2.68l0-.12a1.05,1.05,0,0,1,1.17-.94,1.07,1.07,0,0,1,.9,1.21,1.45,1.45,0,0,1,0,.16,8.41,8.41,0,0,1-1.5,3.28,7.11,7.11,0,0,1-2.74,2.1A11.5,11.5,0,0,1,2582.1,763.12Z"/><path class="cls-36" d="M2559.9,688.37c-.16,1.23,1.07,3.4,1.78,4.41,3.83,5.14,11.26,5.87,16.23,6.53-.66,0-7.3,1.37-12.87-.28-6-1.64-9.6-5.74-10.64-9.89Z"/><path class="cls-31" d="M2619.92,776.44c-2.25,2.33-9.9,7.52-14.63,10.64-.85-8.13-1.68-14.68-1.68-14.68s4,3.59,13.62-35.81a1.83,1.83,0,0,1,.05.24v0C2617.83,740.22,2623.07,773.2,2619.92,776.44Z"/><path class="cls-17" d="M2578.7,770a63.38,63.38,0,0,0-1.16,9.18c0,3.34,8.08,7,15.36,4.9s17.38-7.11,19.86-9.68,4.47-37.24,4.47-37.24l-6.58-1.31s-3.26,22.6-6,25.41S2578.7,770,2578.7,770Z"/><path class="cls-12" d="M1237.71,676.13s-2.68,11.87,3.57,15.31,11-1.62,11-1.62-1.4,15.5,18,17.84c9.89,1.19,14.77-4.15,14.77-4.15s10.07,10.15,23.57,0S1319.31,686,1319.31,686a19.41,19.41,0,0,0,13.19-14,42.23,42.23,0,0,0-1.07-21.79s12.18-16.28,9.23-29-7.05-18.1-7.05-18.1,3-12.38-7.44-19.6-24.53-2.41-24.53-2.41-10.57-15.82-31.28-10-22.21,15.47-22.21,15.47-19.44,2.06-22.67,12.72,0,21.66,0,21.66-8.3.85-6.51,8.85,6.51,10.46,6.51,10.46-10,4.87-6.76,11.71a9.17,9.17,0,0,0,10.16,5.26s-3.17,13.19-.83,15.9S1237.71,676.13,1237.71,676.13Z"/><path class="cls-37" d="M1291.34,1353c-10.74,25.92-33.61,33-8.59,48.13,12.73,7.71,8.41,24.24,30.78,31.84,4.88,1.66,5.4-1.45-2.46-13.81-6.14-9.65-6.84-32.84-6.84-49.13,0-3.28,6-14.27,15.67-29.73-6.5-2.09-12.44-5.86-19.35-7.77C1296.25,1341.82,1293,1349,1291.34,1353Z"/><path class="cls-37" d="M1128.34,1192.9c-13.08,4.38-32.21,9.77-34.47,8.15-6.83-4.88-24.24-11.44-24.24,1.81s-7.83,31.66-7.83,39,2.82,16.92,3.56,21c.92,5.16,9.64,5.34,8.54-8.28-1.07-13.23,14.95-33.35,21.35-33.35,1.24,0,17.16-2.64,33.08-4.43C1125.46,1209.62,1128,1200.63,1128.34,1192.9Z"/><path class="cls-37" d="M1291.34,1353c-10.74,25.92-33.61,33-8.59,48.13,12.73,7.71,8.41,24.24,30.78,31.84,4.88,1.66,5.4-1.45-2.46-13.81-6.14-9.65-6.84-32.84-6.84-49.13,0-3.28,6-14.27,15.67-29.73-6.5-2.09-12.44-5.86-19.35-7.77C1296.25,1341.82,1293,1349,1291.34,1353Z"/><path class="cls-14" d="M1447.84,1127.75c-30.48-102-119-198.25-119-198.25l-60.45,63.68,127.48,158.34s-3.28,5.59-11.51,14.11c-6.94,7.18-80.24,117.14-103.35,166.94,6.91,1.92,37.71,11.23,44.21,13.32,30.28-48.59,90.81-146.92,116.91-183.41A40.1,40.1,0,0,0,1447.84,1127.75Z"/><path class="cls-37" d="M1260.89,665.68c2,2.09,23.58,52.71,14.63,67.92,0,0,29.48,9.33,40.88,2.95s1.06-17,1.06-17l-22.22-41Z"/><path class="cls-38" d="M1306.8,699.91l-11.56-21.32-34.35-12.91c.91.94,5.76,11.68,10,24.6,10.36,8.46,31.59,11.5,35.27,10C1306.36,700.2,1306.59,700,1306.8,699.91Z"/><path class="cls-37" d="M1352.8,904.19c2.79-49.39,5.27-104.19,6.18-128.62l-30.1-62.27a216.18,216.18,0,0,1-30.48,12.45s-105.26,2.58-134.8-11-77.95-139.16-77.95-145.05-8.37-17.12-6.41-23.2-2-9.76-5.69-3.68-.18,17.86-.18,17.86-26.87-38.66-28.12-34.42S1057,550.87,1057,550.87s-18.15-26.87-21.35-23.56c-2.38,2.46,6.7,16,11.55,22.9,1.74,2.37,2.87,4,2.87,4s-1.18-1.58-2.87-4c-5.87-8-18.71-24.82-18.71-18.85,0,7.73,22.47,32.21,22.47,32.21s-25.09-21.17-22.24-13.44,41.32,33.43,44.87,43.74S1116,721.22,1133,738.78s109.62,30.74,126.11,41.79,40,66.67,32.72,90c-2.16,6.91-6.43,15.49-11.37,24.56C1304.57,893.73,1328.69,898.69,1352.8,904.19Z"/><path class="cls-17" d="M1352.23,914.23q.29-5,.58-10c-24.12-5.5-48.24-10.45-72.36-9-11.76,21.59-27.32,46-27.32,57.4,0,16.22,55,191.42,55,191.42-22.15-16.45-138.24,25.35-189.92,42.67-.32,7.72,1.75,24.52,4.63,31.75,51.35-5.76,160.39-18.59,206.6-24,14.49-1.71,19.82-20,20.61-35.08,2.59-49.8,4.4-140.6,4.4-161.83C1354.4,987.42,1350,953.39,1352.23,914.23Z"/><path class="cls-37" d="M1449.24,468.94c-2.43,0-1.22,11.89-1.22,16.69,0,.76.11,1.63-.16,1.8-1.31.81-12.81-27-15.42-24.3-1.58,1.64,3,9.42,5.43,15.29,1.27,2.26,3.43,10.46,2.15,8.49a51.69,51.69,0,0,1-4.38-8.49c-3.67-6.52-10.5-12.34-11.28-12.34-3.56,0-2.43,3.86,2.59,9.06s8.56,16.1,8.56,16.1-5.34-7-10.32-12.15-11-4.42-6.76,0,14.24,14.73,14.24,22.09-2,10.91-4.73,8.1-3.27-16.75-7.37-12.52,6.41,32.15,6.41,32.15,7.59,51-19.93,111.92c-16.48,36.44-52.17,59.69-78.16,72.47l30.1,62.27c.24-6.35.36-10.66.36-12.27,0-13.25,68.1-90.57,73.79-106.68s6.88-102.68,9.25-117.16,12.11-24.48,12.77-34C1456,493.66,1450.18,468.94,1449.24,468.94Z"/><path class="cls-2" d="M1331.17,712.16l38.38,67.59L1356.83,929.5l-80.17-34.6s10.52-40.21,7.77-43.06-5-4-2.67-6.44,2.67,0-2.14-5-2.49-2.39-1.25-7.36,4.54-1-1.66-7.36-9.9-99.82-9.9-99.82l10,.06s20.06,62.21,47.82,55-5.46-63.15-5.46-63.15Z"/><path class="cls-17" d="M1069.63,1202.87c0,13.25-7.83,31.66-7.83,39s2.82,16.92,3.56,21c.8,4.48,7.48,5.19,8.5-3.63l0-6.21s-1.64-16.57-1.64-21.64c0-4,9.61-25.48,13.73-34.5C1078.43,1194.06,1069.63,1193.45,1069.63,1202.87Z"/><path class="cls-12" d="M1313.53,1433c4.88,1.66,5.4-1.45-2.46-13.81-.22-.34-.41-.74-.62-1.12-9.42-7.22-18.06-23.17-20.49-31-2-6.26-5.82-13.3-8.25-17.4-9.68,13.4-17.56,20.2,1,31.47C1295.48,1408.89,1291.16,1425.42,1313.53,1433Z"/><path class="cls-7" d="M1283.18,607.43s8.92-19,23-19c8.37,0,10.82,8.95,10.82,8.95a15.3,15.3,0,0,1,13.48,5.34c5.82,6.72,0,11,0,11s10.72,2.75,14.89,7.56.3,14.9-3.57,14.9c0,0,4.47,5.72-.3,14.15s-14.59,6.9-14.59,6.9a8.89,8.89,0,0,1-2.68,11.32c-6.24,5-19.06.12-21.44-8.1,0,0-7.45,2.1-11.17-5.81s1.43-16.09,1.43-16.09-8.54-9-8.54-16.92,11.73-10.47,11.73-10.47S1276.93,607.43,1283.18,607.43Z"/><path class="cls-37" d="M1303.75,610.21c5,3.27,13.89,12.53,13.16,20.33s5.45,18.1,3.09,34.22-10.71,26.15-14.65,27.81-29.5-2.16-36.07-13.13-25.88-25.7-9.55-53.71S1293.93,603.78,1303.75,610.21Z"/><path d="M1304,649.53a13,13,0,0,0,6,3,53.06,53.06,0,0,1-3.7,6.88,46.19,46.19,0,0,1,1.47-5.57c-4.17-1.07-7.07-5-7.56-9.35A17.41,17.41,0,0,0,1304,649.53Z"/><path d="M1295,643.19c-1.62-3.09-4.89-5.55-8-4.28s-3.93,4.91-7,6c3,.73,5.26-3.22,7.57-4.12S1292.51,641.45,1295,643.19Z"/><path d="M1305.28,644.88c1.63-3.09,4.91-5.53,8-4.26s3.92,4.92,7,6c-3,.72-5.25-3.24-7.56-4.14S1307.73,643.14,1305.28,644.88Z"/><path d="M1286.16,626.32c-3.09-.33-6.11,1.75-8.2,4.34,5.54-3.72,8.44-2.87,11.63-.55s3.68,4,4.57,2.85C1295.33,631.46,1290.1,626.89,1286.16,626.32Z"/><path d="M1311.44,632.07c1.66-.19,3.55,1.17,5.56,2.12-3.6-5.49-7.75-5.94-11.24.47-.57,1,.7,2.12,1.39,1.18C1307.15,635.84,1310.46,632.19,1311.44,632.07Z"/><path d="M1298,669s13.31-3.94,13.31-1.88-1.3,7.24-1.3,9-1,4.37-5.35,4.37S1298,671.57,1298,669Z"/><path class="cls-1" d="M1298,669a14.26,14.26,0,0,0,.45,3c2.9-1,9.44-3,12.48-1.79a21.23,21.23,0,0,0,.38-3.09C1311.31,665,1298,669,1298,669Z"/><path class="cls-17" d="M1292,605.22s-20,9.23-14,11.9,2.17,13.54-1.55,13.54.26,7.51,3.82,10.62-3.16,10.39-6.71,10.39,8.85,3.49,2.89,11.58-15.64,3.62-15.64,3.62,2.38,3.54,0,6.87-19.58,8.41-19.58-1.61,4.93-10.11,4.93-10.11-8.1-2.37-9.67-9,8-6.66,8-6.66-11.17-4.06-8.14-12.15,9.16-7.5,9.16-7.5-13.92-14.72,1.36-23.18c8.63-4.77,14.54-1.26,14.54-1.26s.5-5.39,13.08-7S1292,605.22,1292,605.22Z"/></svg>